Aujournuit-Regular Condensed.ufo
<glyph name="one" format="2">
  <advance width="217"/>
  <unicode hex="0031"/>
  <outline>
    <contour>
      <point x="85" y="544" type="curve" smooth="yes"/>
      <point x="84" y="389" type="line"/>
      <point x="136" y="389" type="line"/>
      <point x="136" y="535" type="line" smooth="yes"/>
      <point x="136" y="580"/>
      <point x="138" y="690"/>
      <point x="138" y="701" type="curve" smooth="yes"/>
      <point x="138" y="707"/>
      <point x="136" y="710"/>
      <point x="131" y="710" type="curve" smooth="yes"/>
      <point x="127" y="710"/>
      <point x="125" y="707"/>
      <point x="123" y="699" type="curve" smooth="yes"/>
      <point x="106" y="642"/>
      <point x="68" y="572"/>
      <point x="25" y="519" type="curve" smooth="yes"/>
      <point x="17" y="510"/>
      <point x="20" y="500"/>
      <point x="28" y="500" type="curve" smooth="yes"/>
      <point x="49" y="500"/>
      <point x="71" y="565"/>
      <point x="80" y="565" type="curve" smooth="yes"/>
      <point x="85" y="565"/>
      <point x="85" y="560"/>
    </contour>
    <component base="_stem.short" xOffset="5"/>
    <contour>
      <point x="84" y="80" type="line"/>
      <point x="84" y="0" type="line" name="_corner00"/>
      <point x="136" y="0" type="line" name="_corner01"/>
      <point x="136" y="80" type="line"/>
    </contour>
  </outline>
</glyph>
<glyph name="four" format="2">
  <advance width="319"/>
  <unicode hex="0034"/>
  <outline>
    <contour>
      <point x="178" y="0" type="line" name="_corner01"/>
      <point x="230" y="0" type="line" name="_corner00"/>
      <point x="229" y="28"/>
      <point x="229" y="71"/>
      <point x="229" y="122" type="curve" smooth="yes"/>
      <point x="229" y="127"/>
      <point x="232" y="130"/>
      <point x="237" y="130" type="curve" smooth="yes"/>
      <point x="281" y="130" type="line" smooth="yes"/>
      <point x="286" y="130"/>
      <point x="289" y="133"/>
      <point x="289" y="138" type="curve" smooth="yes"/>
      <point x="289" y="170" type="line" smooth="yes"/>
      <point x="289" y="175"/>
      <point x="286" y="178"/>
      <point x="281" y="178" type="curve" smooth="yes"/>
      <point x="236" y="178" type="line" smooth="yes"/>
      <point x="231" y="178"/>
      <point x="228" y="181"/>
      <point x="228" y="186" type="curve" smooth="yes"/>
      <point x="227" y="375"/>
      <point x="228" y="613"/>
      <point x="228" y="631" type="curve" smooth="yes"/>
      <point x="228" y="676"/>
      <point x="233" y="692"/>
      <point x="233" y="701" type="curve" smooth="yes"/>
      <point x="233" y="707"/>
      <point x="230" y="710"/>
      <point x="225" y="710" type="curve" smooth="yes"/>
      <point x="222" y="710"/>
      <point x="219" y="708"/>
      <point x="217" y="706" type="curve" smooth="yes"/>
      <point x="213" y="702"/>
      <point x="208" y="695"/>
      <point x="200" y="688" type="curve" smooth="yes"/>
      <point x="182" y="672"/>
      <point x="178" y="658"/>
      <point x="178" y="645" type="curve" smooth="yes"/>
      <point x="178" y="621" type="line" smooth="yes"/>
      <point x="178" y="600"/>
      <point x="176" y="592"/>
      <point x="170" y="574" type="curve" smooth="yes"/>
      <point x="32" y="174" type="line" smooth="yes"/>
      <point x="18" y="134"/>
      <point x="9" y="130"/>
      <point x="48" y="130" type="curve" smooth="yes"/>
      <point x="170" y="130" type="line" smooth="yes"/>
      <point x="175" y="130"/>
      <point x="178" y="127"/>
      <point x="178" y="122" type="curve" smooth="yes"/>
    </contour>
    <contour>
      <point x="59" y="207" type="curve" smooth="yes"/>
      <point x="168" y="523" type="line" smooth="yes"/>
      <point x="173" y="537"/>
      <point x="174" y="544"/>
      <point x="177" y="544" type="curve" smooth="yes"/>
      <point x="181" y="544"/>
      <point x="180" y="533"/>
      <point x="180" y="517" type="curve" smooth="yes"/>
      <point x="178" y="186" type="line" smooth="yes"/>
      <point x="178" y="180"/>
      <point x="175" y="178"/>
      <point x="170" y="178" type="curve" smooth="yes"/>
      <point x="76" y="178" type="line" smooth="yes"/>
      <point x="51" y="178"/>
      <point x="50" y="182"/>
    </contour>
  </outline>
</glyph>
<glyph name="D" format="2">
  <advance width="349"/>
  <unicode hex="0044"/>
  <anchor x="175" y="0" name="bottom"/>
  <anchor x="175" y="350" name="center"/>
  <anchor x="175" y="700" name="top"/>
  <outline>
    <contour>
      <point x="97" y="32" type="line"/>
      <point x="97" y="0" type="line"/>
      <point x="109" y="0"/>
      <point x="124" y="-1"/>
      <point x="138" y="-1" type="curve" smooth="yes"/>
      <point x="249" y="-1"/>
      <point x="319" y="134"/>
      <point x="319" y="370" type="curve" smooth="yes"/>
      <point x="319" y="568"/>
      <point x="248" y="703"/>
      <point x="137" y="701" type="curve" smooth="yes"/>
      <point x="130" y="701"/>
      <point x="122" y="700"/>
      <point x="95" y="700" type="curve"/>
      <point x="95" y="678" type="line"/>
      <point x="134" y="678" type="line"/>
      <point x="134" y="687"/>
      <point x="137" y="688"/>
      <point x="141" y="688" type="curve" smooth="yes"/>
      <point x="216" y="683"/>
      <point x="258" y="569"/>
      <point x="258" y="371" type="curve" smooth="yes"/>
      <point x="258" y="134"/>
      <point x="222" y="15"/>
      <point x="150" y="15" type="curve" smooth="yes"/>
      <point x="143" y="15"/>
      <point x="143" y="17"/>
      <point x="142" y="32" type="curve"/>
    </contour>
    <contour>
      <point x="144" y="0" type="line"/>
      <point x="135" y="700" type="line" name="_corner02"/>
      <point x="71" y="700" type="line" name="_corner00"/>
      <point x="80" y="0" type="line" name="_corner03"/>
    </contour>
  </outline>
</glyph>
<glyph name="E" format="2">
  <advance width="303"/>
  <unicode hex="0045"/>
  <anchor x="154" y="0" name="bottom"/>
  <anchor x="273" y="10" name="ogonek"/>
  <anchor x="166" y="700" name="top"/>
  <anchor x="25" y="700" name="topleft"/>
  <outline>
    <contour>
      <point x="135" y="0" type="line"/>
      <point x="135" y="700" type="line" name="_corner03"/>
      <point x="71" y="700" type="line" name="_corner00"/>
      <point x="71" y="0" type="line" name="_corner02"/>
    </contour>
    <contour>
      <point x="121" y="330" type="line"/>
      <point x="130" y="330" type="line"/>
      <point x="130" y="350"/>
      <point x="136" y="350"/>
      <point x="152" y="349" type="curve" smooth="yes"/>
      <point x="196" y="345"/>
      <point x="215" y="328"/>
      <point x="215" y="250" type="curve" smooth="yes"/>
      <point x="215" y="243"/>
      <point x="218" y="238"/>
      <point x="223" y="238" type="curve" smooth="yes"/>
      <point x="227" y="238"/>
      <point x="231" y="241"/>
      <point x="231" y="249" type="curve" smooth="yes"/>
      <point x="231" y="272"/>
      <point x="220" y="298"/>
      <point x="220" y="357" type="curve" smooth="yes"/>
      <point x="220" y="420"/>
      <point x="231" y="440"/>
      <point x="231" y="461" type="curve" smooth="yes"/>
      <point x="231" y="469"/>
      <point x="227" y="472"/>
      <point x="223" y="472" type="curve" smooth="yes"/>
      <point x="218" y="472"/>
      <point x="215" y="467"/>
      <point x="215" y="460" type="curve" smooth="yes"/>
      <point x="215" y="379"/>
      <point x="196" y="369"/>
      <point x="152" y="365" type="curve" smooth="yes"/>
      <point x="136" y="364"/>
      <point x="130" y="364"/>
      <point x="130" y="388" type="curve"/>
      <point x="121" y="388" type="line"/>
    </contour>
    <contour>
      <point x="280" y="-6" type="curve" smooth="yes"/>
      <point x="285" y="-6"/>
      <point x="289" y="-3"/>
      <point x="288" y="5" type="curve" smooth="yes"/>
      <point x="286" y="20"/>
      <point x="281" y="40"/>
      <point x="281" y="80" type="curve" smooth="yes"/>
      <point x="281" y="144"/>
      <point x="286" y="175"/>
      <point x="288" y="191" type="curve" smooth="yes"/>
      <point x="289" y="200"/>
      <point x="285" y="203"/>
      <point x="280" y="203" type="curve" smooth="yes"/>
      <point x="275" y="203"/>
      <point x="272" y="198"/>
      <point x="272" y="191" type="curve" smooth="yes"/>
      <point x="272" y="34"/>
      <point x="255" y="13"/>
      <point x="147" y="13" type="curve" smooth="yes"/>
      <point x="138" y="13"/>
      <point x="134" y="14"/>
      <point x="133" y="37" type="curve"/>
      <point x="124" y="37" type="line"/>
      <point x="124" y="0" type="line"/>
      <point x="262" y="0"/>
      <point x="270" y="-6"/>
    </contour>
    <component base="_Etop" xOffset="4"/>
  </outline>
</glyph>
<glyph name="F" format="2">
  <advance width="293"/>
  <unicode hex="0046"/>
  <anchor x="149" y="0" name="bottom"/>
  <anchor x="149" y="700" name="top"/>
  <outline>
    <contour>
      <point x="135" y="0" type="line" name="_corner03"/>
      <point x="135" y="700" type="line" name="_corner00"/>
      <point x="71" y="700" type="line" name="_corner01"/>
      <point x="71" y="0" type="line" name="_corner04"/>
    </contour>
    <component base="_Etop" xOffset="5"/>
    <contour>
      <point x="122" y="325" type="line"/>
      <point x="131" y="325" type="line"/>
      <point x="131" y="345"/>
      <point x="137" y="345"/>
      <point x="153" y="344" type="curve" smooth="yes"/>
      <point x="209" y="340"/>
      <point x="228" y="324"/>
      <point x="228" y="245" type="curve" smooth="yes"/>
      <point x="228" y="238"/>
      <point x="231" y="233"/>
      <point x="236" y="233" type="curve" smooth="yes"/>
      <point x="240" y="233"/>
      <point x="244" y="236"/>
      <point x="244" y="244" type="curve" smooth="yes"/>
      <point x="244" y="267"/>
      <point x="233" y="293"/>
      <point x="233" y="352" type="curve" smooth="yes"/>
      <point x="233" y="415"/>
      <point x="244" y="435"/>
      <point x="244" y="456" type="curve" smooth="yes"/>
      <point x="244" y="464"/>
      <point x="240" y="467"/>
      <point x="236" y="467" type="curve" smooth="yes"/>
      <point x="231" y="467"/>
      <point x="228" y="462"/>
      <point x="228" y="455" type="curve" smooth="yes"/>
      <point x="228" y="373"/>
      <point x="209" y="364"/>
      <point x="153" y="360" type="curve" smooth="yes"/>
      <point x="137" y="359"/>
      <point x="131" y="359"/>
      <point x="131" y="383" type="curve"/>
      <point x="122" y="383" type="line"/>
    </contour>
  </outline>
</glyph>
<glyph name="G" format="2">
  <advance width="339"/>
  <unicode hex="0047"/>
  <anchor x="188" y="-20" name="bottom"/>
  <anchor x="167" y="700" name="top"/>
  <outline>
    <contour>
      <point x="30" y="328" type="curve" smooth="yes"/>
      <point x="30" y="134"/>
      <point x="93" y="-10"/>
      <point x="179" y="-10" type="curve" smooth="yes"/>
      <point x="227" y="-10"/>
      <point x="234" y="27"/>
      <point x="261" y="27" type="curve" smooth="yes"/>
      <point x="274" y="27"/>
      <point x="278" y="19"/>
      <point x="283" y="4" type="curve" smooth="yes"/>
      <point x="287" y="-6"/>
      <point x="290" y="-10"/>
      <point x="295" y="-10" type="curve" smooth="yes"/>
      <point x="300" y="-10"/>
      <point x="304" y="-5"/>
      <point x="301" y="4" type="curve" smooth="yes"/>
      <point x="289" y="39"/>
      <point x="290" y="94"/>
      <point x="290" y="144" type="curve" smooth="yes"/>
      <point x="290" y="188"/>
      <point x="291" y="247"/>
      <point x="293" y="369" type="curve" name="_corner00"/>
      <point x="239" y="369" type="line" name="_corner01"/>
      <point x="241" y="235"/>
      <point x="240" y="156"/>
      <point x="240" y="132" type="curve" smooth="yes"/>
      <point x="240" y="31"/>
      <point x="215" y="10"/>
      <point x="187" y="10" type="curve" smooth="yes"/>
      <point x="128" y="10"/>
      <point x="91" y="154"/>
      <point x="91" y="383" type="curve" smooth="yes"/>
      <point x="91" y="564"/>
      <point x="115" y="697"/>
      <point x="181" y="697" type="curve" smooth="yes"/>
      <point x="229" y="697"/>
      <point x="259" y="633"/>
      <point x="259" y="533" type="curve" smooth="yes"/>
      <point x="259" y="511"/>
      <point x="258" y="500"/>
      <point x="267" y="500" type="curve" smooth="yes"/>
      <point x="272" y="500"/>
      <point x="275" y="504"/>
      <point x="275" y="511" type="curve" smooth="yes"/>
      <point x="275" y="521"/>
      <point x="268" y="550"/>
      <point x="268" y="610" type="curve" smooth="yes"/>
      <point x="268" y="661"/>
      <point x="273" y="685"/>
      <point x="274" y="693" type="curve" smooth="yes"/>
      <point x="276" y="708"/>
      <point x="271" y="710"/>
      <point x="267" y="710" type="curve" smooth="yes"/>
      <point x="257" y="710"/>
      <point x="257" y="693"/>
      <point x="242" y="693" type="curve" smooth="yes"/>
      <point x="228" y="693"/>
      <point x="212" y="710"/>
      <point x="183" y="710" type="curve" smooth="yes"/>
      <point x="89" y="710"/>
      <point x="30" y="536"/>
    </contour>
  </outline>
</glyph>
<glyph name="H" format="2">
  <advance width="386"/>
  <unicode hex="0048"/>
  <anchor x="193" y="0" name="bottom"/>
  <anchor x="193" y="350" name="center"/>
  <anchor x="193" y="700" name="top"/>
  <anchor x="25" y="700" name="topleft"/>
  <outline>
    <contour>
      <point x="135" y="0" type="line" name="_corner08"/>
      <point x="135" y="700" type="line" name="_corner10"/>
      <point x="71" y="700" type="line" name="_corner00"/>
      <point x="71" y="0" type="line" name="_corner09"/>
    </contour>
    <contour>
      <point x="251" y="700" type="line" name="_corner07"/>
      <point x="251" y="0" type="line" name="_corner11"/>
      <point x="315" y="0" type="line" name="_corner02"/>
      <point x="315" y="700" type="line" name="_corner03"/>
    </contour>
    <contour>
      <point x="131" y="394" type="curve"/>
      <point x="121" y="394" type="line"/>
      <point x="121" y="336" type="line"/>
      <point x="131" y="336" type="line"/>
      <point x="131" y="358"/>
      <point x="132" y="357"/>
      <point x="183" y="357" type="curve" smooth="yes"/>
      <point x="203" y="357" type="line" smooth="yes"/>
      <point x="254" y="357"/>
      <point x="255" y="358"/>
      <point x="255" y="336" type="curve"/>
      <point x="265" y="336" type="line"/>
      <point x="265" y="394" type="line"/>
      <point x="255" y="394" type="line"/>
      <point x="255" y="372"/>
      <point x="254" y="373"/>
      <point x="203" y="373" type="curve" smooth="yes"/>
      <point x="183" y="373" type="line" smooth="yes"/>
      <point x="132" y="373"/>
      <point x="131" y="372"/>
    </contour>
  </outline>
</glyph>
<glyph name="I" format="2">
  <advance width="207"/>
  <unicode hex="0049"/>
  <anchor x="104" y="0" name="bottom"/>
  <anchor x="180" y="10" name="ogonek"/>
  <anchor x="104" y="700" name="top"/>
  <anchor x="25" y="700" name="topleft"/>
  <outline>
    <contour>
      <point x="136" y="0" type="line" name="_corner03"/>
      <point x="136" y="700" type="line" name="_corner05"/>
      <point x="71" y="700" type="line" name="_corner01"/>
      <point x="71" y="0" type="line" name="_corner04"/>
    </contour>
  </outline>
</glyph>
<glyph name="J" format="2">
  <advance width="249"/>
  <unicode hex="004A"/>
  <anchor x="130" y="0" name="bottom"/>
  <anchor x="130" y="700" name="top"/>
  <outline>
    <contour>
      <point x="188" y="149" type="curve" smooth="yes"/>
      <point x="188" y="214"/>
      <point x="188" y="515"/>
      <point x="188" y="700" type="curve" name="_corner01"/>
      <point x="128" y="700" type="line" name="_corner00"/>
      <point x="132" y="549"/>
      <point x="132" y="205"/>
      <point x="132" y="132" type="curve" smooth="yes"/>
      <point x="132" y="23"/>
      <point x="122" y="6"/>
      <point x="90" y="6" type="curve" smooth="yes"/>
      <point x="38" y="6"/>
      <point x="54" y="86"/>
      <point x="54" y="112" type="curve" smooth="yes"/>
      <point x="54" y="136"/>
      <point x="43" y="145"/>
      <point x="29" y="145" type="curve" smooth="yes"/>
      <point x="10" y="145"/>
      <point x="0" y="125"/>
      <point x="0" y="91" type="curve" smooth="yes"/>
      <point x="0" y="30"/>
      <point x="37" y="-9"/>
      <point x="92" y="-9" type="curve" smooth="yes"/>
      <point x="158" y="-9"/>
      <point x="188" y="38"/>
    </contour>
  </outline>
</glyph>
<glyph name="K" format="2">
  <advance width="394"/>
  <unicode hex="004B"/>
  <anchor x="187" y="0" name="bottom"/>
  <anchor x="187" y="700" name="top"/>
  <outline>
    <contour>
      <point x="273" y="0" type="curve" name="_corner00"/>
      <point x="343" y="0" type="line" name="_corner01"/>
      <point x="304" y="99"/>
      <point x="267" y="211"/>
      <point x="199" y="417" type="curve" smooth="yes"/>
      <point x="197" y="423"/>
      <point x="199" y="429"/>
      <point x="203" y="439" type="curve" smooth="yes"/>
      <point x="225" y="495"/>
      <point x="261" y="568"/>
      <point x="316" y="700" type="curve" name="_corner03"/>
      <point x="266" y="700" type="line" name="_corner02"/>
      <point x="226" y="557"/>
      <point x="175" y="431"/>
      <point x="141" y="340" type="curve" smooth="yes"/>
      <point x="140" y="337"/>
      <point x="138" y="334"/>
      <point x="135" y="334" type="curve" smooth="yes"/>
      <point x="130" y="334"/>
      <point x="131" y="340"/>
      <point x="131" y="348" type="curve"/>
      <point x="102" y="356" type="line"/>
      <point x="103" y="257" type="line"/>
      <point x="131" y="257" type="line"/>
      <point x="131" y="268"/>
      <point x="135" y="276"/>
      <point x="137" y="282" type="curve" smooth="yes"/>
      <point x="161" y="341" type="line" smooth="yes"/>
      <point x="163" y="345"/>
      <point x="164" y="346"/>
      <point x="166" y="346" type="curve" smooth="yes"/>
      <point x="168" y="346"/>
      <point x="168" y="346"/>
      <point x="170" y="341" type="curve" smooth="yes"/>
      <point x="212" y="209"/>
      <point x="248" y="102"/>
    </contour>
    <contour>
      <point x="71" y="0" type="line" name="_corner09"/>
      <point x="135" y="0" type="line" name="_corner07"/>
      <point x="135" y="700" type="line" name="_corner08"/>
      <point x="71" y="700" type="line" name="_corner05"/>
    </contour>
  </outline>
</glyph>
<glyph name="L" format="2">
  <advance width="293"/>
  <unicode hex="004C"/>
  <anchor x="149" y="0" name="bottom"/>
  <anchor x="200" y="388" name="center"/>
  <anchor x="119" y="700" name="top"/>
  <anchor x="273" y="700" name="topright"/>
  <outline>
    <contour>
      <point x="135" y="0" type="line"/>
      <point x="135" y="700" type="line" name="_corner03"/>
      <point x="71" y="700" type="line" name="_corner01"/>
      <point x="71" y="0" type="line" name="_corner04"/>
    </contour>
    <contour>
      <point x="280" y="-6" type="curve" smooth="yes"/>
      <point x="285" y="-6"/>
      <point x="289" y="-3"/>
      <point x="288" y="5" type="curve" smooth="yes"/>
      <point x="286" y="20"/>
      <point x="281" y="40"/>
      <point x="281" y="80" type="curve" smooth="yes"/>
      <point x="281" y="144"/>
      <point x="286" y="175"/>
      <point x="288" y="208" type="curve" smooth="yes"/>
      <point x="289" y="217"/>
      <point x="285" y="220"/>
      <point x="280" y="220" type="curve" smooth="yes"/>
      <point x="275" y="220"/>
      <point x="272" y="215"/>
      <point x="272" y="208" type="curve" smooth="yes"/>
      <point x="272" y="34"/>
      <point x="255" y="13"/>
      <point x="152" y="13" type="curve" smooth="yes"/>
      <point x="136" y="13"/>
      <point x="133" y="24"/>
      <point x="133" y="45" type="curve"/>
      <point x="124" y="45" type="line"/>
      <point x="124" y="0" type="line"/>
      <point x="262" y="0"/>
      <point x="270" y="-6"/>
    </contour>
  </outline>
</glyph>
<glyph name="M" format="2">
  <advance width="431"/>
  <unicode hex="004D"/>
  <anchor x="213" y="0" name="bottom"/>
  <anchor x="213" y="700" name="top"/>
  <outline>
    <contour>
      <point x="120" y="700" type="curve" name="_corner02"/>
      <point x="56" y="700" type="line" name="_corner01"/>
      <point x="69" y="629" type="line" smooth="yes"/>
      <point x="69" y="627"/>
      <point x="70" y="620"/>
      <point x="70" y="616" type="curve" smooth="yes"/>
      <point x="66" y="0" type="line" name="_corner05"/>
      <point x="108" y="0" type="line" name="_corner06"/>
      <point x="100" y="205"/>
      <point x="91" y="390"/>
      <point x="90" y="521" type="curve" smooth="yes"/>
      <point x="90" y="524"/>
      <point x="91" y="526"/>
      <point x="93" y="526" type="curve" smooth="yes"/>
      <point x="95" y="526"/>
      <point x="96" y="525"/>
      <point x="97" y="521" type="curve" smooth="yes"/>
      <point x="128" y="361"/>
      <point x="169" y="157"/>
      <point x="200" y="-9" type="curve" smooth="yes"/>
      <point x="201" y="-12"/>
      <point x="203" y="-12"/>
      <point x="205" y="-12" type="curve" smooth="yes"/>
      <point x="211" y="-12" type="line" smooth="yes"/>
      <point x="213" y="-12"/>
      <point x="214" y="-12"/>
      <point x="215" y="-9" type="curve"/>
      <point x="261" y="277"/>
      <point x="273" y="349"/>
      <point x="302" y="522" type="curve" smooth="yes"/>
      <point x="303" y="526"/>
      <point x="304" y="527"/>
      <point x="306" y="527" type="curve" smooth="yes"/>
      <point x="308" y="527"/>
      <point x="309" y="525"/>
      <point x="309" y="522" type="curve" smooth="yes"/>
      <point x="311" y="369"/>
      <point x="309" y="260"/>
      <point x="305" y="0" type="curve" name="_corner07"/>
      <point x="370" y="0" type="line" name="_corner08"/>
      <point x="359" y="700" type="line" name="_corner09"/>
      <point x="294" y="700" type="line" name="_corner03"/>
      <point x="271" y="474"/>
      <point x="245" y="289"/>
      <point x="226" y="164" type="curve" smooth="yes"/>
      <point x="225" y="159"/>
      <point x="224" y="157"/>
      <point x="222" y="157" type="curve" smooth="yes"/>
      <point x="220" y="157"/>
      <point x="219" y="159"/>
      <point x="218" y="164" type="curve" smooth="yes"/>
      <point x="195" y="293"/>
      <point x="160" y="469"/>
    </contour>
  </outline>
</glyph>
<glyph name="N" format="2">
  <advance width="380"/>
  <unicode hex="004E"/>
  <anchor x="188" y="0" name="bottom"/>
  <anchor x="188" y="700" name="top"/>
  <outline>
    <contour>
      <point x="72" y="0" type="curve" name="_corner06"/>
      <point x="113" y="0" type="line" name="_corner01"/>
      <point x="102" y="216"/>
      <point x="101" y="381"/>
      <point x="99" y="528" type="curve" smooth="yes"/>
      <point x="99" y="532"/>
      <point x="100" y="534"/>
      <point x="103" y="534" type="curve" smooth="yes"/>
      <point x="104" y="534"/>
      <point x="106" y="533"/>
      <point x="107" y="529" type="curve" smooth="yes"/>
      <point x="151" y="377"/>
      <point x="194" y="220"/>
      <point x="254" y="0" type="curve" name="_corner04"/>
      <point x="305" y="0" type="line" name="_corner03"/>
      <point x="295" y="140"/>
      <point x="297" y="560"/>
      <point x="309" y="700" type="curve" name="_corner07"/>
      <point x="264" y="700" type="line" name="_corner05"/>
      <point x="274" y="520"/>
      <point x="279" y="283"/>
      <point x="283" y="118" type="curve" smooth="yes"/>
      <point x="283" y="113"/>
      <point x="283" y="111"/>
      <point x="280" y="111" type="curve" smooth="yes"/>
      <point x="278" y="111"/>
      <point x="277" y="115"/>
      <point x="276" y="118" type="curve" smooth="yes"/>
      <point x="198" y="400"/>
      <point x="156" y="548"/>
      <point x="118" y="700" type="curve" name="_corner02"/>
      <point x="56" y="700" type="line" name="_corner00"/>
      <point x="79" y="613" type="line" smooth="yes"/>
      <point x="80" y="610"/>
      <point x="81" y="605"/>
      <point x="81" y="602" type="curve" smooth="yes"/>
      <point x="81" y="533"/>
      <point x="78" y="39"/>
    </contour>
  </outline>
</glyph>
<glyph name="P" format="2">
  <advance width="345"/>
  <unicode hex="0050"/>
  <anchor x="160" y="0" name="bottom"/>
  <anchor x="160" y="700" name="top"/>
  <outline>
    <contour>
      <point x="126" y="161" type="line"/>
      <point x="138" y="161" type="line"/>
      <point x="138" y="176"/>
      <point x="139" y="176"/>
      <point x="147" y="177" type="curve" smooth="yes"/>
      <point x="246" y="195"/>
      <point x="315" y="309"/>
      <point x="315" y="452" type="curve" smooth="yes"/>
      <point x="315" y="602"/>
      <point x="242" y="705"/>
      <point x="137" y="701" type="curve" smooth="yes"/>
      <point x="112" y="700"/>
      <point x="107" y="700"/>
      <point x="95" y="700" type="curve"/>
      <point x="126" y="681" type="line"/>
      <point x="134" y="681" type="line"/>
      <point x="134" y="686"/>
      <point x="136" y="688"/>
      <point x="141" y="688" type="curve" smooth="yes"/>
      <point x="213" y="690"/>
      <point x="254" y="604"/>
      <point x="254" y="449" type="curve" smooth="yes"/>
      <point x="254" y="307"/>
      <point x="214" y="209"/>
      <point x="149" y="194" type="curve" smooth="yes"/>
      <point x="138" y="192"/>
      <point x="138" y="194"/>
      <point x="138" y="206" type="curve"/>
      <point x="126" y="206" type="line"/>
    </contour>
    <contour>
      <point x="145" y="0" type="line" name="_corner04"/>
      <point x="135" y="700" type="line" name="_corner02"/>
      <point x="71" y="700" type="line" name="_corner00"/>
      <point x="81" y="0" type="line" name="_corner03"/>
    </contour>
  </outline>
</glyph>
<glyph name="R" format="2">
  <advance width="377"/>
  <unicode hex="0052"/>
  <anchor x="212" y="0" name="bottom"/>
  <anchor x="169" y="700" name="top"/>
  <outline>
    <contour>
      <point x="89" y="699" type="curve"/>
      <point x="89" y="681" type="line"/>
      <point x="134" y="681" type="line"/>
      <point x="134" y="685"/>
      <point x="136" y="687"/>
      <point x="141" y="687" type="curve" smooth="yes"/>
      <point x="218" y="689"/>
      <point x="261" y="605"/>
      <point x="261" y="453" type="curve" smooth="yes"/>
      <point x="261" y="318"/>
      <point x="218" y="222"/>
      <point x="150" y="203" type="curve" smooth="yes"/>
      <point x="140" y="200"/>
      <point x="137" y="203"/>
      <point x="137" y="211" type="curve"/>
      <point x="123" y="211" type="line"/>
      <point x="123" y="174" type="line"/>
      <point x="138" y="174" type="line"/>
      <point x="138" y="183"/>
      <point x="139" y="187"/>
      <point x="150" y="186" type="curve" smooth="yes"/>
      <point x="214" y="177"/>
      <point x="221" y="84"/>
      <point x="247" y="32" type="curve" smooth="yes"/>
      <point x="262" y="2"/>
      <point x="281" y="-10"/>
      <point x="309" y="-10" type="curve" smooth="yes"/>
      <point x="342" y="-10"/>
      <point x="362" y="17"/>
      <point x="375" y="70" type="curve" smooth="yes"/>
      <point x="377" y="79"/>
      <point x="380" y="93"/>
      <point x="371" y="93" type="curve" smooth="yes"/>
      <point x="365" y="93"/>
      <point x="363" y="88"/>
      <point x="361" y="75" type="curve" smooth="yes"/>
      <point x="356" y="49"/>
      <point x="351" y="30"/>
      <point x="331" y="30" type="curve" smooth="yes"/>
      <point x="315" y="30"/>
      <point x="308" y="37"/>
      <point x="293" y="77" type="curve" smooth="yes"/>
      <point x="264" y="157"/>
      <point x="239" y="190"/>
      <point x="182" y="193" type="curve" smooth="yes"/>
      <point x="179" y="193"/>
      <point x="178" y="194"/>
      <point x="178" y="196" type="curve" smooth="yes"/>
      <point x="178" y="197"/>
      <point x="179" y="198"/>
      <point x="182" y="199" type="curve" smooth="yes"/>
      <point x="268" y="230"/>
      <point x="322" y="329"/>
      <point x="322" y="456" type="curve" smooth="yes"/>
      <point x="322" y="600"/>
      <point x="240" y="706"/>
      <point x="138" y="701" type="curve" smooth="yes"/>
      <point x="120" y="700"/>
      <point x="104" y="699"/>
      <point x="92" y="699" type="curve" smooth="yes"/>
      <point x="91" y="699"/>
      <point x="90" y="699"/>
    </contour>
    <contour>
      <point x="144" y="0" type="line" name="_corner02"/>
      <point x="135" y="700" type="line" name="_corner03"/>
      <point x="71" y="700" type="line" name="_corner00"/>
      <point x="80" y="0" type="line" name="_corner04"/>
    </contour>
  </outline>
</glyph>
<glyph name="U" format="2">
  <advance width="382"/>
  <unicode hex="0055"/>
  <anchor x="191" y="0" name="bottom"/>
  <anchor x="268" y="10" name="ogonek"/>
  <anchor x="191" y="700" name="top"/>
  <anchor x="352" y="700" name="topright"/>
  <outline>
    <contour>
      <point x="66" y="700" type="line" name="_corner00"/>
      <point x="72" y="628"/>
      <point x="72" y="481"/>
      <point x="74" y="150" type="curve" smooth="yes"/>
      <point x="75" y="39"/>
      <point x="116" y="-9"/>
      <point x="203" y="-9" type="curve" smooth="yes"/>
      <point x="274" y="-9"/>
      <point x="299" y="34"/>
      <point x="299" y="163" type="curve" smooth="yes"/>
      <point x="299" y="376"/>
      <point x="308" y="604"/>
      <point x="316" y="700" type="curve" name="_corner02"/>
      <point x="269" y="700" type="line" name="_corner01"/>
      <point x="278" y="546"/>
      <point x="282" y="220"/>
      <point x="282" y="139" type="curve" smooth="yes"/>
      <point x="282" y="44"/>
      <point x="260" y="8"/>
      <point x="207" y="8" type="curve" smooth="yes"/>
      <point x="153" y="8"/>
      <point x="131" y="44"/>
      <point x="130" y="137" type="curve" smooth="yes"/>
      <point x="124" y="520"/>
      <point x="128" y="677"/>
      <point x="131" y="700" type="curve" name="_corner03"/>
    </contour>
  </outline>
</glyph>
<glyph name="V" format="2">
  <advance width="363"/>
  <unicode hex="0056"/>
  <anchor x="177" y="0" name="bottom"/>
  <anchor x="177" y="700" name="top"/>
  <outline>
    <contour>
      <point x="115" y="700" type="curve" name="_corner02"/>
      <point x="51" y="700" type="line" name="_corner01"/>
      <point x="98" y="428"/>
      <point x="135" y="211"/>
      <point x="171" y="-5" type="curve" smooth="yes"/>
      <point x="172" y="-9"/>
      <point x="173" y="-9"/>
      <point x="177" y="-9" type="curve" smooth="yes"/>
      <point x="186" y="-9" type="line" smooth="yes"/>
      <point x="190" y="-9"/>
      <point x="191" y="-8"/>
      <point x="192" y="-4" type="curve" smooth="yes"/>
      <point x="226" y="201"/>
      <point x="276" y="495"/>
      <point x="312" y="700" type="curve" name="_corner00"/>
      <point x="266" y="700" type="line" name="_corner03"/>
      <point x="247" y="504"/>
      <point x="218" y="277"/>
      <point x="205" y="168" type="curve" smooth="yes"/>
      <point x="204" y="159"/>
      <point x="203" y="158"/>
      <point x="201" y="158" type="curve" smooth="yes"/>
      <point x="199" y="158"/>
      <point x="198" y="159"/>
      <point x="197" y="168" type="curve" smooth="yes"/>
      <point x="174" y="305"/>
      <point x="141" y="504"/>
    </contour>
  </outline>
</glyph>
<glyph name="W" format="2">
  <advance width="513"/>
  <unicode hex="0057"/>
  <anchor x="252" y="0" name="bottom"/>
  <anchor x="258" y="700" name="top"/>
  <outline>
    <contour>
      <point x="167" y="-9" type="curve" smooth="yes"/>
      <point x="182" y="-9" type="line" smooth="yes"/>
      <point x="183" y="-9"/>
      <point x="184" y="-8"/>
      <point x="184" y="-7" type="curve" smooth="yes"/>
      <point x="203" y="143"/>
      <point x="228" y="338"/>
      <point x="250" y="510" type="curve" smooth="yes"/>
      <point x="251" y="515"/>
      <point x="253" y="516"/>
      <point x="254" y="516" type="curve" smooth="yes"/>
      <point x="255" y="516"/>
      <point x="257" y="516"/>
      <point x="258" y="510" type="curve" smooth="yes"/>
      <point x="281" y="341"/>
      <point x="306" y="160"/>
      <point x="329" y="-7" type="curve" smooth="yes"/>
      <point x="329" y="-9"/>
      <point x="330" y="-9"/>
      <point x="331" y="-9" type="curve" smooth="yes"/>
      <point x="346" y="-9" type="line" smooth="yes"/>
      <point x="347" y="-9"/>
      <point x="348" y="-8"/>
      <point x="348" y="-7" type="curve" smooth="yes"/>
      <point x="381" y="201"/>
      <point x="429" y="495"/>
      <point x="462" y="700" type="curve" name="_corner02"/>
      <point x="416" y="700" type="line" name="_corner03"/>
      <point x="400" y="504"/>
      <point x="374" y="282"/>
      <point x="362" y="183" type="curve" smooth="yes"/>
      <point x="361" y="174"/>
      <point x="360" y="173"/>
      <point x="358" y="173" type="curve" smooth="yes"/>
      <point x="356" y="173"/>
      <point x="355" y="174"/>
      <point x="354" y="183" type="curve" smooth="yes"/>
      <point x="337" y="304"/>
      <point x="307" y="526"/>
      <point x="287" y="700" type="curve" name="_corner05"/>
      <point x="223" y="700" type="line" name="_corner04"/>
      <point x="236" y="616" type="line"/>
      <point x="217" y="413"/>
      <point x="202" y="264"/>
      <point x="193" y="183" type="curve" smooth="yes"/>
      <point x="192" y="174"/>
      <point x="191" y="173"/>
      <point x="189" y="173" type="curve" smooth="yes"/>
      <point x="187" y="173"/>
      <point x="186" y="174"/>
      <point x="185" y="183" type="curve" smooth="yes"/>
      <point x="164" y="310"/>
      <point x="138" y="504"/>
      <point x="115" y="700" type="curve" name="_corner01"/>
      <point x="51" y="700" type="line" name="_corner00"/>
      <point x="95" y="428"/>
      <point x="131" y="211"/>
      <point x="165" y="-7" type="curve" smooth="yes"/>
      <point x="165" y="-9"/>
      <point x="166" y="-9"/>
    </contour>
  </outline>
</glyph>
<glyph name="X" format="2">
  <advance width="395"/>
  <unicode hex="0058"/>
  <anchor x="193" y="0" name="bottom"/>
  <anchor x="193" y="700" name="top"/>
  <outline>
    <contour>
      <point x="51" y="0" type="curve" name="_corner01"/>
      <point x="103" y="0" type="line" name="_corner05"/>
      <point x="125" y="102"/>
      <point x="151" y="208"/>
      <point x="181" y="315" type="curve" smooth="yes"/>
      <point x="185" y="328"/>
      <point x="188" y="327"/>
      <point x="192" y="315" type="curve" smooth="yes"/>
      <point x="226" y="208"/>
      <point x="255" y="102"/>
      <point x="280" y="0" type="curve" name="_corner04"/>
      <point x="314" y="0" type="line" smooth="yes"/>
      <point x="345" y="0"/>
      <point x="374" y="-4"/>
      <point x="383" y="-4" type="curve" smooth="yes"/>
      <point x="391" y="-4"/>
      <point x="395" y="-1"/>
      <point x="395" y="5" type="curve" smooth="yes"/>
      <point x="395" y="10"/>
      <point x="391" y="14"/>
      <point x="383" y="14" type="curve" smooth="yes"/>
      <point x="368" y="14"/>
      <point x="341" y="9"/>
      <point x="331" y="39" type="curve" smooth="yes"/>
      <point x="293" y="155"/>
      <point x="254" y="276"/>
      <point x="223" y="384" type="curve" smooth="yes"/>
      <point x="219" y="397"/>
      <point x="220" y="399"/>
      <point x="224" y="412" type="curve" smooth="yes"/>
      <point x="255" y="504"/>
      <point x="292" y="603"/>
      <point x="329" y="700" type="curve" name="_corner06"/>
      <point x="283" y="700" type="line" name="_corner02"/>
      <point x="264" y="613"/>
      <point x="242" y="526"/>
      <point x="216" y="436" type="curve" smooth="yes"/>
      <point x="212" y="423"/>
      <point x="210" y="423"/>
      <point x="206" y="436" type="curve" smooth="yes"/>
      <point x="180" y="525"/>
      <point x="157" y="613"/>
      <point x="137" y="700" type="curve" name="_corner03"/>
      <point x="73" y="700" type="line" name="_corner00"/>
      <point x="112" y="584"/>
      <point x="146" y="472"/>
      <point x="173" y="371" type="curve" smooth="yes"/>
      <point x="177" y="358"/>
      <point x="176" y="356"/>
      <point x="172" y="343" type="curve" smooth="yes"/>
      <point x="138" y="233"/>
      <point x="100" y="113"/>
    </contour>
  </outline>
</glyph>
<glyph name="Y" format="2">
  <advance width="379"/>
  <unicode hex="0059"/>
  <anchor x="185" y="0" name="bottom"/>
  <anchor x="185" y="700" name="top"/>
  <anchor x="35" y="700" name="topleft"/>
  <outline>
    <contour>
      <point x="115" y="700" type="curve" name="_corner02"/>
      <point x="51" y="700" type="line" name="_corner01"/>
      <point x="89" y="560"/>
      <point x="125" y="418"/>
      <point x="160" y="278" type="curve" smooth="yes"/>
      <point x="162" y="271"/>
      <point x="163" y="265"/>
      <point x="163" y="256" type="curve" smooth="yes"/>
      <point x="163" y="131"/>
      <point x="162" y="19"/>
      <point x="159" y="0" type="curve" name="_corner06"/>
      <point x="223" y="0" type="line" name="_corner05"/>
      <point x="219" y="54"/>
      <point x="217" y="151"/>
      <point x="216" y="257" type="curve" smooth="yes"/>
      <point x="216" y="264"/>
      <point x="217" y="269"/>
      <point x="219" y="279" type="curve" smooth="yes"/>
      <point x="251" y="418"/>
      <point x="289" y="559"/>
      <point x="328" y="700" type="curve" name="_corner00"/>
      <point x="282" y="700" type="line" name="_corner03"/>
      <point x="260" y="573"/>
      <point x="235" y="445"/>
      <point x="209" y="316" type="curve" smooth="yes"/>
      <point x="208" y="311"/>
      <point x="207" y="309"/>
      <point x="205" y="309" type="curve" smooth="yes"/>
      <point x="203" y="309"/>
      <point x="201" y="311"/>
      <point x="200" y="316" type="curve" smooth="yes"/>
      <point x="170" y="446"/>
      <point x="142" y="573"/>
    </contour>
  </outline>
</glyph>
<glyph name="Z" format="2">
  <advance width="301"/>
  <unicode hex="005A"/>
  <anchor x="141" y="0" name="bottom"/>
  <anchor x="141" y="350" name="center"/>
  <anchor x="150" y="700" name="top"/>
  <outline>
    <contour>
      <point x="99" y="0" type="line"/>
      <point x="250" y="700" type="line" name="_corner03"/>
      <point x="183" y="700" type="line"/>
      <point x="31" y="0" type="line" name="_corner01"/>
    </contour>
    <contour>
      <point x="26" y="706" type="curve" smooth="yes"/>
      <point x="21" y="706"/>
      <point x="17" y="703"/>
      <point x="18" y="695" type="curve" smooth="yes"/>
      <point x="20" y="680"/>
      <point x="25" y="660"/>
      <point x="25" y="620" type="curve" smooth="yes"/>
      <point x="25" y="556"/>
      <point x="20" y="525"/>
      <point x="18" y="512" type="curve" smooth="yes"/>
      <point x="17" y="503"/>
      <point x="21" y="500"/>
      <point x="26" y="500" type="curve" smooth="yes"/>
      <point x="31" y="500"/>
      <point x="34" y="505"/>
      <point x="34" y="512" type="curve" smooth="yes"/>
      <point x="34" y="666"/>
      <point x="51" y="687"/>
      <point x="163" y="687" type="curve" smooth="yes"/>
      <point x="172" y="687"/>
      <point x="181" y="686"/>
      <point x="176" y="663" type="curve"/>
      <point x="186" y="663" type="line"/>
      <point x="186" y="700" type="line"/>
      <point x="44" y="700"/>
      <point x="36" y="706"/>
    </contour>
    <contour>
      <point x="255" y="-6" type="curve" smooth="yes"/>
      <point x="260" y="-6"/>
      <point x="264" y="-3"/>
      <point x="263" y="5" type="curve" smooth="yes"/>
      <point x="261" y="20"/>
      <point x="256" y="40"/>
      <point x="256" y="80" type="curve" smooth="yes"/>
      <point x="256" y="144"/>
      <point x="261" y="175"/>
      <point x="263" y="191" type="curve" smooth="yes"/>
      <point x="264" y="200"/>
      <point x="260" y="203"/>
      <point x="255" y="203" type="curve" smooth="yes"/>
      <point x="250" y="203"/>
      <point x="247" y="198"/>
      <point x="247" y="191" type="curve" smooth="yes"/>
      <point x="247" y="34"/>
      <point x="230" y="13"/>
      <point x="118" y="13" type="curve" smooth="yes"/>
      <point x="109" y="13"/>
      <point x="100" y="14"/>
      <point x="105" y="37" type="curve"/>
      <point x="95" y="37" type="line"/>
      <point x="95" y="0" type="line"/>
      <point x="237" y="0"/>
      <point x="245" y="-6"/>
    </contour>
  </outline>
</glyph>
<glyph name="f" format="2">
  <advance width="234"/>
  <unicode hex="0066"/>
  <anchor x="118" y="0" name="bottom"/>
  <anchor x="118" y="758" name="top"/>
  <outline>
    <component base="_stem.short" xOffset="3" identifier="29E06B72"/>
    <contour>
      <point x="82" y="80" type="line"/>
      <point x="78" y="0" type="line" name="_corner00"/>
      <point x="138" y="0" type="line" name="_corner01"/>
      <point x="134" y="80" type="line"/>
    </contour>
    <contour>
      <point x="82" y="377" type="line"/>
      <point x="134" y="377" type="line"/>
      <point x="134" y="454" type="line" smooth="yes"/>
      <point x="134" y="481"/>
      <point x="154" y="473"/>
      <point x="207" y="473" type="curve" smooth="yes"/>
      <point x="215" y="473"/>
      <point x="221" y="477"/>
      <point x="221" y="484" type="curve" smooth="yes"/>
      <point x="221" y="490"/>
      <point x="217" y="494"/>
      <point x="207" y="494" type="curve" smooth="yes"/>
      <point x="150" y="494"/>
      <point x="131" y="485"/>
      <point x="131" y="512" type="curve" smooth="yes"/>
      <point x="131" y="543"/>
      <point x="131" y="568"/>
      <point x="131" y="588" type="curve" smooth="yes"/>
      <point x="131" y="656"/>
      <point x="138" y="677"/>
      <point x="166" y="677" type="curve" smooth="yes"/>
      <point x="188" y="677"/>
      <point x="204" y="652"/>
      <point x="230" y="652" type="curve" smooth="yes"/>
      <point x="247" y="652"/>
      <point x="257" y="663"/>
      <point x="257" y="677" type="curve" smooth="yes"/>
      <point x="257" y="695"/>
      <point x="241" y="710"/>
      <point x="211" y="710" type="curve" smooth="yes"/>
      <point x="137" y="710"/>
      <point x="84" y="643"/>
      <point x="84" y="543" type="curve" smooth="yes"/>
      <point x="84" y="539" type="line" smooth="yes"/>
      <point x="84" y="515"/>
      <point x="77" y="506"/>
      <point x="63" y="499" type="curve" smooth="yes"/>
      <point x="44" y="490"/>
      <point x="32" y="492"/>
      <point x="32" y="482" type="curve" smooth="yes"/>
      <point x="32" y="477"/>
      <point x="36" y="474"/>
      <point x="42" y="474" type="curve" smooth="yes"/>
      <point x="57" y="474"/>
      <point x="82" y="483"/>
      <point x="82" y="441" type="curve" smooth="yes"/>
    </contour>
  </outline>
</glyph>
<glyph name="k" format="2">
  <advance width="367"/>
  <unicode hex="006B"/>
  <anchor x="184" y="0" name="bottom"/>
  <anchor x="184" y="758" name="top"/>
  <outline>
    <contour>
      <point x="80" y="597" type="curve" smooth="yes"/>
      <point x="80" y="80" type="line"/>
      <point x="132" y="80" type="line"/>
      <point x="132" y="180" type="line" smooth="yes"/>
      <point x="132" y="191"/>
      <point x="135" y="200"/>
      <point x="138" y="207" type="curve" smooth="yes"/>
      <point x="168" y="267" type="line" smooth="yes"/>
      <point x="173" y="278"/>
      <point x="176" y="278"/>
      <point x="179" y="268" type="curve" smooth="yes"/>
      <point x="212" y="177"/>
      <point x="245" y="87"/>
      <point x="274" y="0" type="curve" name="_corner00"/>
      <point x="344" y="0" type="line" name="_corner01"/>
      <point x="295" y="102"/>
      <point x="249" y="204"/>
      <point x="204" y="310" type="curve" smooth="yes"/>
      <point x="201" y="316"/>
      <point x="202" y="324"/>
      <point x="204" y="328" type="curve" smooth="yes"/>
      <point x="233" y="383"/>
      <point x="269" y="441"/>
      <point x="314" y="500" type="curve" name="_corner02"/>
      <point x="255" y="500" type="line" name="_corner03"/>
      <point x="223" y="417"/>
      <point x="183" y="334"/>
      <point x="141" y="260" type="curve" smooth="yes"/>
      <point x="136" y="249"/>
      <point x="126" y="246"/>
      <point x="126" y="268" type="curve" smooth="yes"/>
      <point x="126" y="447" type="line" smooth="yes"/>
      <point x="126" y="645"/>
      <point x="134" y="690"/>
      <point x="134" y="702" type="curve" smooth="yes"/>
      <point x="134" y="708"/>
      <point x="131" y="711"/>
      <point x="126" y="711" type="curve" smooth="yes"/>
      <point x="117" y="711"/>
      <point x="115" y="700"/>
      <point x="85" y="679" type="curve" smooth="yes"/>
      <point x="48" y="653"/>
      <point x="30" y="659"/>
      <point x="30" y="646" type="curve" smooth="yes"/>
      <point x="30" y="641"/>
      <point x="33" y="638"/>
      <point x="38" y="638" type="curve" smooth="yes"/>
      <point x="68" y="638"/>
      <point x="80" y="627"/>
    </contour>
    <component base="_stem.foot" xOffset="11"/>
  </outline>
</glyph>
<glyph name="m" format="2">
  <advance width="585"/>
  <unicode hex="006D"/>
  <anchor x="293" y="0" name="bottom"/>
  <anchor x="293" y="500" name="top"/>
  <outline>
    <component base="_stem.short.top" identifier="A3F397D9"/>
    <component base="_stem.short" xOffset="1" identifier="56C5CA92"/>
    <contour>
      <point x="270" y="0" type="line" name="_corner01"/>
      <point x="320" y="0" type="line" name="_corner00"/>
      <point x="320" y="122"/>
      <point x="320" y="245"/>
      <point x="320" y="380" type="curve" smooth="yes"/>
      <point x="320" y="463"/>
      <point x="290" y="510"/>
      <point x="232" y="510" type="curve" smooth="yes"/>
      <point x="196" y="510"/>
      <point x="167" y="488"/>
      <point x="141" y="438" type="curve" smooth="yes"/>
      <point x="138" y="431"/>
      <point x="136" y="427"/>
      <point x="132" y="427" type="curve"/>
      <point x="106" y="427" type="line"/>
      <point x="106" y="287" type="line"/>
      <point x="132" y="287" type="line"/>
      <point x="132" y="402"/>
      <point x="161" y="474"/>
      <point x="215" y="474" type="curve" smooth="yes"/>
      <point x="254" y="474"/>
      <point x="270" y="441"/>
      <point x="270" y="365" type="curve" smooth="yes"/>
    </contour>
    <component base="_stem.foot" xOffset="11"/>
    <component base="_n.side" xScale="0.95" xOffset="206"/>
  </outline>
</glyph>
<glyph name="p" format="2">
  <advance width="383"/>
  <unicode hex="0070"/>
  <anchor x="189" y="0" name="bottom"/>
  <anchor x="189" y="500" name="top"/>
  <outline>
    <contour>
      <point x="348" y="264" type="curve" smooth="yes"/>
      <point x="348" y="422"/>
      <point x="302" y="510"/>
      <point x="229" y="510" type="curve" smooth="yes"/>
      <point x="192" y="510"/>
      <point x="160" y="488"/>
      <point x="137" y="445" type="curve" smooth="yes"/>
      <point x="129" y="431"/>
      <point x="127" y="429"/>
      <point x="123" y="429" type="curve" smooth="yes"/>
      <point x="118" y="429"/>
      <point x="118" y="437"/>
      <point x="118" y="446" type="curve" smooth="yes"/>
      <point x="118" y="475"/>
      <point x="130" y="502"/>
      <point x="102" y="501" type="curve" smooth="yes"/>
      <point x="63" y="499" type="line" name="_corner02"/>
      <point x="70" y="401"/>
      <point x="71" y="332"/>
      <point x="71" y="214" type="curve" smooth="yes"/>
      <point x="71" y="0" type="line"/>
      <point x="117" y="0" type="line"/>
      <point x="117" y="63" type="line" smooth="yes"/>
      <point x="117" y="67"/>
      <point x="117" y="71"/>
      <point x="123" y="71" type="curve" smooth="yes"/>
      <point x="126" y="71"/>
      <point x="127" y="72"/>
      <point x="138" y="53" type="curve" smooth="yes"/>
      <point x="158" y="17"/>
      <point x="179" y="-10"/>
      <point x="215" y="-10" type="curve" smooth="yes"/>
      <point x="291" y="-10"/>
      <point x="348" y="106"/>
    </contour>
    <contour>
      <point x="289" y="246" type="curve" smooth="yes"/>
      <point x="289" y="72"/>
      <point x="262" y="4"/>
      <point x="217" y="4" type="curve" smooth="yes"/>
      <point x="163" y="4"/>
      <point x="123" y="113"/>
      <point x="123" y="254" type="curve" smooth="yes"/>
      <point x="123" y="275" type="line" smooth="yes"/>
      <point x="123" y="404"/>
      <point x="155" y="474"/>
      <point x="207" y="474" type="curve" smooth="yes"/>
      <point x="260" y="474"/>
      <point x="289" y="399"/>
    </contour>
    <contour>
      <point x="71" y="49" type="line"/>
      <point x="71" y="14"/>
      <point x="72" y="-113"/>
      <point x="66" y="-196" type="curve" name="_corner01"/>
      <point x="124" y="-196" type="line" name="_corner00"/>
      <point x="122" y="-156"/>
      <point x="117" y="-48"/>
      <point x="117" y="0" type="curve"/>
      <point x="117" y="49" type="line"/>
    </contour>
  </outline>
</glyph>
<glyph name="q" format="2">
  <advance width="376"/>
  <unicode hex="0071"/>
  <anchor x="191" y="0" name="bottom"/>
  <anchor x="191" y="500" name="top"/>
  <outline>
    <component base="_b.bowl" xScale="-1" yScale="-1" xOffset="382" yOffset="500" identifier="B411514B"/>
    <contour>
      <point x="313" y="49" type="curve"/>
      <point x="267" y="49" type="line"/>
      <point x="267" y="0" type="line"/>
      <point x="267" y="-48"/>
      <point x="266" y="-156"/>
      <point x="262" y="-196" type="curve" name="_corner00"/>
      <point x="318" y="-196" type="line" name="_corner01"/>
      <point x="312" y="-113"/>
      <point x="313" y="14"/>
    </contour>
  </outline>
</glyph>
<glyph name="r" format="2">
  <advance width="259"/>
  <unicode hex="0072"/>
  <anchor x="118" y="0" name="bottom"/>
  <anchor x="154" y="500" name="top"/>
  <outline>
    <contour>
      <point x="82" y="392" type="curve" smooth="yes"/>
      <point x="82" y="120" type="line"/>
      <point x="78" y="0" type="line" name="_corner00"/>
      <point x="138" y="0" type="line" name="_corner01"/>
      <point x="134" y="120" type="line"/>
      <point x="134" y="287" type="line" smooth="yes"/>
      <point x="134" y="404"/>
      <point x="157" y="450"/>
      <point x="198" y="450" type="curve" smooth="yes"/>
      <point x="213" y="450"/>
      <point x="218" y="445"/>
      <point x="230" y="445" type="curve" smooth="yes"/>
      <point x="247" y="445"/>
      <point x="259" y="458"/>
      <point x="259" y="477" type="curve" smooth="yes"/>
      <point x="259" y="498"/>
      <point x="244" y="510"/>
      <point x="223" y="510" type="curve" smooth="yes"/>
      <point x="193" y="510"/>
      <point x="170" y="487"/>
      <point x="145" y="440" type="curve" smooth="yes"/>
      <point x="140" y="431"/>
      <point x="138" y="427"/>
      <point x="134" y="427" type="curve" smooth="yes"/>
      <point x="129" y="427"/>
      <point x="128" y="433"/>
      <point x="128" y="439" type="curve" smooth="yes"/>
      <point x="128" y="452"/>
      <point x="132" y="488"/>
      <point x="132" y="497" type="curve" smooth="yes"/>
      <point x="132" y="503"/>
      <point x="129" y="506"/>
      <point x="125" y="506" type="curve" smooth="yes"/>
      <point x="114" y="506"/>
      <point x="115" y="494"/>
      <point x="87" y="474" type="curve" smooth="yes"/>
      <point x="50" y="448"/>
      <point x="32" y="454"/>
      <point x="32" y="441" type="curve" smooth="yes"/>
      <point x="32" y="436"/>
      <point x="35" y="433"/>
      <point x="40" y="433" type="curve" smooth="yes"/>
      <point x="70" y="433"/>
      <point x="82" y="422"/>
    </contour>
  </outline>
</glyph>
<glyph name="u" format="2">
  <advance width="395"/>
  <unicode hex="0075"/>
  <guideline x="368" y="344" angle="270"/>
  <anchor x="203" y="0" name="bottom"/>
  <anchor x="365" y="10" name="ogonek"/>
  <anchor x="187" y="500" name="top"/>
  <anchor x="385" y="500" name="topright"/>
  <outline>
    <component base="_stem.short" xScale="-1" yScale="-1" xOffset="397" yOffset="520" identifier="1AEB2187"/>
    <contour>
      <point x="318" y="265" type="line"/>
      <point x="266" y="265" type="line"/>
      <point x="266" y="243" type="line" smooth="yes"/>
      <point x="266" y="104"/>
      <point x="234" y="30"/>
      <point x="177" y="30" type="curve" smooth="yes"/>
      <point x="137" y="30"/>
      <point x="119" y="62"/>
      <point x="119" y="136" type="curve" smooth="yes"/>
      <point x="119" y="260" type="line" smooth="yes"/>
      <point x="119" y="369"/>
      <point x="123" y="430"/>
      <point x="124" y="462" type="curve" smooth="yes"/>
      <point x="125" y="499"/>
      <point x="120" y="501"/>
      <point x="101" y="500" type="curve" smooth="yes"/>
      <point x="63" y="499" type="line" name="_corner01"/>
      <point x="66" y="421" type="line"/>
      <point x="66" y="133" type="line" smooth="yes"/>
      <point x="66" y="41"/>
      <point x="99" y="-10"/>
      <point x="159" y="-10" type="curve" smooth="yes"/>
      <point x="200" y="-10"/>
      <point x="226" y="10"/>
      <point x="256" y="62" type="curve" smooth="yes"/>
      <point x="260" y="69"/>
      <point x="262" y="71"/>
      <point x="266" y="71" type="curve" smooth="yes"/>
      <point x="273" y="71"/>
      <point x="272" y="63"/>
      <point x="272" y="59" type="curve" smooth="yes"/>
      <point x="272" y="17"/>
      <point x="257" y="-2"/>
      <point x="297" y="-1" type="curve" smooth="yes"/>
      <point x="327" y="0" type="line" name="_corner00"/>
      <point x="318" y="87"/>
      <point x="318" y="88"/>
      <point x="318" y="236" type="curve" smooth="yes"/>
    </contour>
    <contour>
      <point x="266" y="498" type="line" name="_corner02"/>
      <point x="266" y="370" type="line"/>
      <point x="318" y="370" type="line"/>
      <point x="318" y="441"/>
      <point x="320" y="462"/>
      <point x="320" y="483" type="curve" smooth="yes"/>
      <point x="320" y="495"/>
      <point x="315" y="501"/>
      <point x="303" y="500" type="curve" smooth="yes"/>
    </contour>
  </outline>
</glyph>
<glyph name="v" format="2">
  <advance width="345"/>
  <unicode hex="0076"/>
  <anchor x="173" y="0" name="bottom"/>
  <anchor x="173" y="500" name="top"/>
  <outline>
    <contour>
      <point x="97" y="500" type="curve" name="_corner03"/>
      <point x="36" y="500" type="line" name="_corner00"/>
      <point x="79" y="333"/>
      <point x="122" y="167"/>
      <point x="161" y="-1" type="curve" smooth="yes"/>
      <point x="162" y="-6"/>
      <point x="166" y="-8"/>
      <point x="170" y="-8" type="curve" smooth="yes"/>
      <point x="175" y="-8" type="line" smooth="yes"/>
      <point x="179" y="-8"/>
      <point x="183" y="-6"/>
      <point x="184" y="-1" type="curve" smooth="yes"/>
      <point x="223" y="167"/>
      <point x="267" y="333"/>
      <point x="309" y="500" type="curve" name="_corner01"/>
      <point x="261" y="500" type="line" name="_corner02"/>
      <point x="241" y="371"/>
      <point x="219" y="243"/>
      <point x="194" y="110" type="curve" smooth="yes"/>
      <point x="193" y="105"/>
      <point x="192" y="104"/>
      <point x="190" y="104" type="curve" smooth="yes"/>
      <point x="188" y="104"/>
      <point x="187" y="105"/>
      <point x="186" y="109" type="curve" smooth="yes"/>
      <point x="154" y="243"/>
      <point x="125" y="371"/>
    </contour>
  </outline>
</glyph>
<glyph name="w" format="2">
  <advance width="496"/>
  <unicode hex="0077"/>
  <anchor x="248" y="0" name="bottom"/>
  <anchor x="248" y="500" name="top"/>
  <outline>
    <contour>
      <point x="95" y="500" type="curve" name="_corner05"/>
      <point x="33" y="500" type="line" name="_corner03"/>
      <point x="75" y="333"/>
      <point x="112" y="166"/>
      <point x="150" y="-2" type="curve"/>
      <point x="150" y="-6"/>
      <point x="154" y="-8"/>
      <point x="157" y="-8" type="curve" smooth="yes"/>
      <point x="165" y="-8" type="line" smooth="yes"/>
      <point x="168" y="-8"/>
      <point x="171" y="-6"/>
      <point x="172" y="-2" type="curve" smooth="yes"/>
      <point x="195" y="108"/>
      <point x="218" y="216"/>
      <point x="245" y="332" type="curve" smooth="yes"/>
      <point x="246" y="336"/>
      <point x="247" y="339"/>
      <point x="249" y="339" type="curve" smooth="yes"/>
      <point x="251" y="339"/>
      <point x="252" y="336"/>
      <point x="253" y="332" type="curve" smooth="yes"/>
      <point x="280" y="217"/>
      <point x="303" y="108"/>
      <point x="326" y="-2" type="curve" smooth="yes"/>
      <point x="327" y="-6"/>
      <point x="330" y="-8"/>
      <point x="333" y="-8" type="curve" smooth="yes"/>
      <point x="341" y="-8" type="line" smooth="yes"/>
      <point x="344" y="-8"/>
      <point x="348" y="-6"/>
      <point x="348" y="-2" type="curve"/>
      <point x="385" y="166"/>
      <point x="421" y="333"/>
      <point x="463" y="500" type="curve" name="_corner01"/>
      <point x="415" y="500" type="line" name="_corner02"/>
      <point x="403" y="371"/>
      <point x="383" y="243"/>
      <point x="358" y="110" type="curve" smooth="yes"/>
      <point x="357" y="105"/>
      <point x="356" y="104"/>
      <point x="354" y="104" type="curve" smooth="yes"/>
      <point x="352" y="104"/>
      <point x="351" y="105"/>
      <point x="350" y="109" type="curve" smooth="yes"/>
      <point x="324" y="224"/>
      <point x="299" y="334"/>
      <point x="279" y="445" type="curve" smooth="yes"/>
      <point x="269" y="500" type="line" name="_corner04"/>
      <point x="209" y="500" type="line" name="_corner00"/>
      <point x="230" y="418" type="line" smooth="yes"/>
      <point x="232" y="411"/>
      <point x="232" y="408"/>
      <point x="231" y="400" type="curve" smooth="yes"/>
      <point x="217" y="307"/>
      <point x="201" y="209"/>
      <point x="182" y="110" type="curve" smooth="yes"/>
      <point x="181" y="105"/>
      <point x="180" y="104"/>
      <point x="178" y="104" type="curve" smooth="yes"/>
      <point x="176" y="104"/>
      <point x="175" y="105"/>
      <point x="174" y="109" type="curve" smooth="yes"/>
      <point x="142" y="243"/>
      <point x="117" y="371"/>
    </contour>
  </outline>
</glyph>
<glyph name="x" format="2">
  <advance width="356"/>
  <unicode hex="0078"/>
  <anchor x="178" y="0" name="bottom"/>
  <anchor x="178" y="500" name="top"/>
  <outline>
    <contour>
      <point x="255" y="0" type="curve" name="_corner06"/>
      <point x="323" y="0" type="line" name="_corner07"/>
      <point x="280" y="89"/>
      <point x="238" y="188"/>
      <point x="202" y="278" type="curve" smooth="yes"/>
      <point x="200" y="284"/>
      <point x="200" y="288"/>
      <point x="203" y="294" type="curve" smooth="yes"/>
      <point x="236" y="365"/>
      <point x="270" y="433"/>
      <point x="308" y="500" type="curve" name="_corner03"/>
      <point x="262" y="500" type="line" name="_corner02"/>
      <point x="244" y="438"/>
      <point x="221" y="378"/>
      <point x="194" y="313" type="curve" smooth="yes"/>
      <point x="193" y="311"/>
      <point x="192" y="307"/>
      <point x="189" y="307" type="curve" smooth="yes"/>
      <point x="186" y="307"/>
      <point x="185" y="311"/>
      <point x="184" y="313" type="curve" smooth="yes"/>
      <point x="157" y="378"/>
      <point x="133" y="438"/>
      <point x="113" y="500" type="curve" name="_corner01"/>
      <point x="45" y="500" type="line" name="_corner00"/>
      <point x="85" y="419"/>
      <point x="121" y="337"/>
      <point x="150" y="259" type="curve" smooth="yes"/>
      <point x="152" y="253"/>
      <point x="152" y="249"/>
      <point x="150" y="243" type="curve" smooth="yes"/>
      <point x="115" y="160"/>
      <point x="76" y="79"/>
      <point x="33" y="0" type="curve" name="_corner04"/>
      <point x="79" y="0" type="line" name="_corner05"/>
      <point x="101" y="73"/>
      <point x="127" y="145"/>
      <point x="158" y="221" type="curve" smooth="yes"/>
      <point x="159" y="223"/>
      <point x="160" y="228"/>
      <point x="163" y="228" type="curve" smooth="yes"/>
      <point x="166" y="228"/>
      <point x="167" y="223"/>
      <point x="168" y="221" type="curve" smooth="yes"/>
      <point x="202" y="145"/>
      <point x="231" y="73"/>
    </contour>
  </outline>
</glyph>
<glyph name="y" format="2">
  <advance width="345"/>
  <unicode hex="0079"/>
  <anchor x="170" y="0" name="bottom"/>
  <anchor x="178" y="500" name="top"/>
  <outline>
    <contour>
      <point x="95" y="500" type="curve" name="_corner03"/>
      <point x="36" y="500" type="line" name="_corner00"/>
      <point x="79" y="337"/>
      <point x="120" y="173"/>
      <point x="161" y="1" type="curve" smooth="yes"/>
      <point x="162" y="-4"/>
      <point x="162" y="-7"/>
      <point x="153" y="-49" type="curve" smooth="yes"/>
      <point x="141" y="-107"/>
      <point x="125" y="-144"/>
      <point x="102" y="-144" type="curve" smooth="yes"/>
      <point x="78" y="-144"/>
      <point x="84" y="-118"/>
      <point x="61" y="-118" type="curve" smooth="yes"/>
      <point x="43" y="-118"/>
      <point x="31" y="-131"/>
      <point x="31" y="-150" type="curve" smooth="yes"/>
      <point x="31" y="-178"/>
      <point x="50" y="-194"/>
      <point x="79" y="-194" type="curve" smooth="yes"/>
      <point x="122" y="-194"/>
      <point x="145" y="-166"/>
      <point x="184" y="-8" type="curve" smooth="yes"/>
      <point x="199" y="36"/>
      <point x="298" y="455"/>
      <point x="309" y="500" type="curve" name="_corner01"/>
      <point x="263" y="500" type="line" name="_corner02"/>
      <point x="243" y="371"/>
      <point x="219" y="243"/>
      <point x="194" y="110" type="curve" smooth="yes"/>
      <point x="193" y="105"/>
      <point x="192" y="104"/>
      <point x="190" y="104" type="curve" smooth="yes"/>
      <point x="188" y="104"/>
      <point x="187" y="105"/>
      <point x="186" y="109" type="curve" smooth="yes"/>
      <point x="154" y="243"/>
      <point x="122" y="371"/>
    </contour>
  </outline>
</glyph>
<glyph name="yen" format="2">
  <advance width="379"/>
  <unicode hex="00A5"/>
  <anchor x="185" y="0" name="bottom"/>
  <anchor x="185" y="700" name="top"/>
  <anchor x="35" y="700" name="topleft"/>
  <outline>
    <contour>
      <point x="115" y="700" type="curve" name="_corner02"/>
      <point x="51" y="700" type="line" name="_corner01"/>
      <point x="86" y="569"/>
      <point x="121" y="435"/>
      <point x="154" y="303" type="curve" smooth="yes"/>
      <point x="155" y="297"/>
      <point x="154" y="295"/>
      <point x="148" y="295" type="curve" smooth="yes"/>
      <point x="81" y="296" type="line" smooth="yes"/>
      <point x="74" y="296"/>
      <point x="71" y="295"/>
      <point x="70" y="291" type="curve" smooth="yes"/>
      <point x="70" y="290"/>
      <point x="69" y="286"/>
      <point x="69" y="284" type="curve" smooth="yes"/>
      <point x="69" y="280"/>
      <point x="70" y="279"/>
      <point x="76" y="279" type="curve" smooth="yes"/>
      <point x="154" y="280" type="line" smooth="yes"/>
      <point x="162" y="280"/>
      <point x="163" y="276"/>
      <point x="163" y="267" type="curve" smooth="yes"/>
      <point x="163" y="253"/>
      <point x="163" y="240"/>
      <point x="163" y="226" type="curve" smooth="yes"/>
      <point x="163" y="221"/>
      <point x="161" y="219"/>
      <point x="156" y="219" type="curve" smooth="yes"/>
      <point x="81" y="220" type="line" smooth="yes"/>
      <point x="74" y="220"/>
      <point x="71" y="219"/>
      <point x="70" y="216" type="curve" smooth="yes"/>
      <point x="69" y="212"/>
      <point x="68" y="209"/>
      <point x="68" y="208" type="curve" smooth="yes"/>
      <point x="67" y="204"/>
      <point x="70" y="203"/>
      <point x="76" y="203" type="curve" smooth="yes"/>
      <point x="156" y="204" type="line" smooth="yes"/>
      <point x="161" y="204"/>
      <point x="163" y="202"/>
      <point x="163" y="197" type="curve" smooth="yes"/>
      <point x="163" y="97"/>
      <point x="162" y="16"/>
      <point x="159" y="0" type="curve" name="_corner06"/>
      <point x="223" y="0" type="line" name="_corner05"/>
      <point x="220" y="44"/>
      <point x="218" y="115"/>
      <point x="217" y="197" type="curve" smooth="yes"/>
      <point x="217" y="202"/>
      <point x="219" y="204"/>
      <point x="224" y="204" type="curve" smooth="yes"/>
      <point x="304" y="203" type="line" smooth="yes"/>
      <point x="311" y="203"/>
      <point x="314" y="204"/>
      <point x="315" y="207" type="curve" smooth="yes"/>
      <point x="316" y="211"/>
      <point x="317" y="214"/>
      <point x="317" y="215" type="curve" smooth="yes"/>
      <point x="318" y="219"/>
      <point x="315" y="220"/>
      <point x="309" y="220" type="curve" smooth="yes"/>
      <point x="223" y="219" type="line" smooth="yes"/>
      <point x="218" y="219"/>
      <point x="216" y="221"/>
      <point x="216" y="226" type="curve" smooth="yes"/>
      <point x="216" y="240"/>
      <point x="216" y="254"/>
      <point x="216" y="268" type="curve" smooth="yes"/>
      <point x="216" y="276"/>
      <point x="217" y="279"/>
      <point x="225" y="279" type="curve" smooth="yes"/>
      <point x="304" y="279" type="line" smooth="yes"/>
      <point x="311" y="279"/>
      <point x="314" y="280"/>
      <point x="315" y="283" type="curve" smooth="yes"/>
      <point x="316" y="287"/>
      <point x="317" y="290"/>
      <point x="317" y="291" type="curve" smooth="yes"/>
      <point x="318" y="295"/>
      <point x="315" y="296"/>
      <point x="309" y="296" type="curve" smooth="yes"/>
      <point x="231" y="295" type="line" smooth="yes"/>
      <point x="225" y="295"/>
      <point x="224" y="297"/>
      <point x="225" y="303" type="curve" smooth="yes"/>
      <point x="255" y="434"/>
      <point x="292" y="568"/>
      <point x="328" y="700" type="curve" name="_corner00"/>
      <point x="282" y="700" type="line" name="_corner03"/>
      <point x="260" y="573"/>
      <point x="235" y="445"/>
      <point x="209" y="316" type="curve" smooth="yes"/>
      <point x="208" y="311"/>
      <point x="207" y="309"/>
      <point x="205" y="309" type="curve" smooth="yes"/>
      <point x="203" y="309"/>
      <point x="201" y="311"/>
      <point x="200" y="316" type="curve" smooth="yes"/>
      <point x="170" y="446"/>
      <point x="142" y="573"/>
    </contour>
  </outline>
</glyph>
<glyph name="paragraph" format="2">
  <advance width="419"/>
  <unicode hex="00B6"/>
  <outline>
    <contour>
      <point x="230" y="0" type="curve"/>
      <point x="338" y="0" type="line" name="_corner03"/>
      <point x="339" y="233"/>
      <point x="339" y="467"/>
      <point x="338" y="700" type="curve" name="_corner02"/>
      <point x="300" y="700"/>
      <point x="281" y="700"/>
      <point x="218" y="701" type="curve" smooth="yes"/>
      <point x="97" y="703"/>
      <point x="30" y="632"/>
      <point x="30" y="502" type="curve" smooth="yes"/>
      <point x="30" y="397"/>
      <point x="96" y="312"/>
      <point x="198" y="297" type="curve" smooth="yes"/>
      <point x="201" y="297"/>
      <point x="203" y="296"/>
      <point x="204" y="295" type="curve"/>
      <point x="201" y="41" type="line" smooth="yes" name="_corner01"/>
      <point x="201" y="10"/>
      <point x="176" y="14"/>
      <point x="161" y="14" type="curve" smooth="yes"/>
      <point x="153" y="14"/>
      <point x="149" y="10"/>
      <point x="149" y="5" type="curve" smooth="yes"/>
      <point x="149" y="-1"/>
      <point x="153" y="-4"/>
      <point x="161" y="-4" type="curve" smooth="yes"/>
      <point x="170" y="-4"/>
      <point x="199" y="0"/>
    </contour>
    <contour>
      <point x="265" y="41" type="curve" smooth="yes"/>
      <point x="273" y="659" type="line" smooth="yes" name="_corner00"/>
      <point x="273" y="679"/>
      <point x="283" y="685"/>
      <point x="299" y="685" type="curve" smooth="yes"/>
      <point x="315" y="685"/>
      <point x="320" y="678"/>
      <point x="321" y="656" type="curve" smooth="yes"/>
      <point x="326" y="451"/>
      <point x="326" y="246"/>
      <point x="321" y="41" type="curve" smooth="yes"/>
      <point x="321" y="23"/>
      <point x="312" y="13"/>
      <point x="293" y="13" type="curve" smooth="yes"/>
      <point x="276" y="13"/>
      <point x="265" y="20"/>
    </contour>
  </outline>
</glyph>
<glyph name="onesuperior" format="2">
  <advance width="200"/>
  <unicode hex="00B9"/>
  <outline>
    <contour>
      <point x="84" y="370" type="line" name="_corner02"/>
      <point x="134" y="370" type="line" name="_corner03"/>
      <point x="134" y="545" type="line" smooth="yes"/>
      <point x="134" y="600"/>
      <point x="135" y="656"/>
      <point x="136" y="711" type="curve" smooth="yes"/>
      <point x="136" y="717"/>
      <point x="134" y="720"/>
      <point x="129" y="720" type="curve" smooth="yes"/>
      <point x="125" y="720"/>
      <point x="122" y="717"/>
      <point x="120" y="709" type="curve" smooth="yes"/>
      <point x="103" y="652"/>
      <point x="68" y="582"/>
      <point x="25" y="529" type="curve" smooth="yes"/>
      <point x="17" y="520"/>
      <point x="20" y="510"/>
      <point x="28" y="510" type="curve" smooth="yes"/>
      <point x="49" y="510"/>
      <point x="71" y="575"/>
      <point x="80" y="575" type="curve" smooth="yes"/>
      <point x="85" y="575"/>
      <point x="85" y="570"/>
      <point x="85" y="554" type="curve" smooth="yes"/>
    </contour>
  </outline>
</glyph>
<glyph name="AE" format="2">
  <advance width="388"/>
  <unicode hex="00C6"/>
  <anchor x="194" y="0" name="bottom"/>
  <anchor x="194" y="700" name="top"/>
  <outline>
    <contour>
      <point x="51" y="0" type="curve" name="_corner00"/>
      <point x="97" y="0" type="line" name="_corner01"/>
      <point x="108" y="116"/>
      <point x="123" y="231"/>
      <point x="140" y="333" type="curve" smooth="yes"/>
      <point x="141" y="341"/>
      <point x="151" y="341"/>
      <point x="180" y="341" type="curve" smooth="yes"/>
      <point x="187" y="341"/>
      <point x="190" y="337"/>
      <point x="190" y="328" type="curve"/>
      <point x="207" y="350" type="line"/>
      <point x="190" y="368" type="line"/>
      <point x="190" y="360"/>
      <point x="187" y="357"/>
      <point x="180" y="357" type="curve" smooth="yes"/>
      <point x="149" y="357"/>
      <point x="144" y="356"/>
      <point x="145" y="365" type="curve" smooth="yes"/>
      <point x="152" y="421"/>
      <point x="172" y="516"/>
      <point x="179" y="572" type="curve" smooth="yes"/>
      <point x="180" y="580"/>
      <point x="182" y="584"/>
      <point x="185" y="584" type="curve" smooth="yes"/>
      <point x="188" y="584"/>
      <point x="189" y="578"/>
      <point x="189" y="554" type="curve"/>
      <point x="210" y="554" type="line"/>
      <point x="210" y="692" type="line"/>
      <point x="161" y="686" type="line"/>
      <point x="182" y="686"/>
      <point x="181" y="671"/>
      <point x="166" y="589" type="curve" smooth="yes"/>
      <point x="130" y="394"/>
      <point x="92" y="168"/>
    </contour>
    <contour>
      <point x="365" y="-6" type="curve" smooth="yes"/>
      <point x="370" y="-6"/>
      <point x="374" y="-3"/>
      <point x="373" y="5" type="curve" smooth="yes"/>
      <point x="371" y="20"/>
      <point x="366" y="40"/>
      <point x="366" y="80" type="curve" smooth="yes"/>
      <point x="366" y="144"/>
      <point x="371" y="175"/>
      <point x="373" y="191" type="curve" smooth="yes"/>
      <point x="374" y="200"/>
      <point x="370" y="203"/>
      <point x="365" y="203" type="curve" smooth="yes"/>
      <point x="360" y="203"/>
      <point x="357" y="198"/>
      <point x="357" y="191" type="curve" smooth="yes"/>
      <point x="357" y="34"/>
      <point x="340" y="13"/>
      <point x="272" y="13" type="curve" smooth="yes"/>
      <point x="253" y="13"/>
      <point x="249" y="17"/>
      <point x="248" y="37" type="curve"/>
      <point x="239" y="37" type="line"/>
      <point x="239" y="0" type="line"/>
      <point x="347" y="0"/>
      <point x="355" y="-6"/>
    </contour>
    <contour>
      <point x="216" y="0" type="curve" smooth="yes"/>
      <point x="250" y="0" type="line"/>
      <point x="250" y="700" type="line" name="_corner04"/>
      <point x="186" y="700" type="line" name="_corner02"/>
      <point x="186" y="41" type="line" smooth="yes" name="_corner03"/>
      <point x="186" y="10"/>
      <point x="172" y="14"/>
      <point x="157" y="14" type="curve" smooth="yes"/>
      <point x="149" y="14"/>
      <point x="145" y="10"/>
      <point x="145" y="5" type="curve" smooth="yes"/>
      <point x="145" y="-1"/>
      <point x="149" y="-4"/>
      <point x="157" y="-4" type="curve" smooth="yes"/>
      <point x="166" y="-4"/>
      <point x="185" y="0"/>
    </contour>
    <contour>
      <point x="318" y="232" type="curve" smooth="yes"/>
      <point x="322" y="232"/>
      <point x="326" y="235"/>
      <point x="326" y="243" type="curve" smooth="yes"/>
      <point x="326" y="266"/>
      <point x="315" y="292"/>
      <point x="315" y="351" type="curve" smooth="yes"/>
      <point x="315" y="414"/>
      <point x="326" y="434"/>
      <point x="326" y="455" type="curve" smooth="yes"/>
      <point x="326" y="463"/>
      <point x="322" y="466"/>
      <point x="318" y="466" type="curve" smooth="yes"/>
      <point x="313" y="466"/>
      <point x="310" y="461"/>
      <point x="310" y="454" type="curve" smooth="yes"/>
      <point x="310" y="373"/>
      <point x="291" y="363"/>
      <point x="267" y="359" type="curve" smooth="yes"/>
      <point x="251" y="356"/>
      <point x="245" y="358"/>
      <point x="245" y="382" type="curve"/>
      <point x="236" y="382" type="line"/>
      <point x="236" y="324" type="line"/>
      <point x="245" y="324" type="line"/>
      <point x="245" y="344"/>
      <point x="251" y="346"/>
      <point x="267" y="343" type="curve" smooth="yes"/>
      <point x="291" y="339"/>
      <point x="310" y="322"/>
      <point x="310" y="244" type="curve" smooth="yes"/>
      <point x="310" y="237"/>
      <point x="313" y="232"/>
    </contour>
    <contour>
      <point x="359" y="500" type="curve" smooth="yes"/>
      <point x="364" y="500"/>
      <point x="368" y="503"/>
      <point x="367" y="512" type="curve" smooth="yes"/>
      <point x="365" y="525"/>
      <point x="360" y="556"/>
      <point x="360" y="620" type="curve" smooth="yes"/>
      <point x="360" y="660"/>
      <point x="365" y="680"/>
      <point x="367" y="695" type="curve" smooth="yes"/>
      <point x="368" y="703"/>
      <point x="364" y="706"/>
      <point x="359" y="706" type="curve" smooth="yes"/>
      <point x="349" y="706"/>
      <point x="341" y="700"/>
      <point x="239" y="700" type="curve"/>
      <point x="239" y="663" type="line"/>
      <point x="248" y="663" type="line"/>
      <point x="249" y="683"/>
      <point x="251" y="687"/>
      <point x="262" y="687" type="curve" smooth="yes"/>
      <point x="334" y="687"/>
      <point x="351" y="666"/>
      <point x="351" y="512" type="curve" smooth="yes"/>
      <point x="351" y="505"/>
      <point x="354" y="500"/>
    </contour>
  </outline>
</glyph>
<glyph name="Thorn" format="2">
  <advance width="340"/>
  <unicode hex="00DE"/>
  <anchor x="170" y="0" name="bottom"/>
  <anchor x="170" y="700" name="top"/>
  <outline>
    <contour>
      <point x="118" y="71" type="line"/>
      <point x="130" y="71" type="line"/>
      <point x="130" y="86"/>
      <point x="131" y="86"/>
      <point x="139" y="87" type="curve" smooth="yes"/>
      <point x="238" y="105"/>
      <point x="310" y="219"/>
      <point x="310" y="362" type="curve" smooth="yes"/>
      <point x="310" y="512"/>
      <point x="242" y="611"/>
      <point x="137" y="611" type="curve" smooth="yes"/>
      <point x="133" y="611"/>
      <point x="133" y="613"/>
      <point x="133" y="616" type="curve"/>
      <point x="129" y="616" type="line"/>
      <point x="124" y="591" type="line"/>
      <point x="132" y="591" type="line"/>
      <point x="132" y="596"/>
      <point x="134" y="598"/>
      <point x="139" y="598" type="curve" smooth="yes"/>
      <point x="211" y="600"/>
      <point x="249" y="514"/>
      <point x="249" y="359" type="curve" smooth="yes"/>
      <point x="249" y="217"/>
      <point x="206" y="119"/>
      <point x="141" y="104" type="curve" smooth="yes"/>
      <point x="130" y="102"/>
      <point x="130" y="104"/>
      <point x="130" y="116" type="curve"/>
      <point x="118" y="116" type="line"/>
    </contour>
    <contour>
      <point x="137" y="0" type="line" name="_corner04"/>
      <point x="135" y="700" type="line" name="_corner05"/>
      <point x="71" y="700" type="line" name="_corner01"/>
      <point x="73" y="0" type="line" name="_corner03"/>
    </contour>
  </outline>
</glyph>
<glyph name="thorn" format="2">
  <advance width="380"/>
  <unicode hex="00FE"/>
  <anchor x="190" y="0" name="bottom"/>
  <anchor x="190" y="758" name="top"/>
  <outline>
    <contour>
      <point x="345" y="264" type="curve" smooth="yes"/>
      <point x="345" y="422"/>
      <point x="299" y="510"/>
      <point x="226" y="510" type="curve" smooth="yes"/>
      <point x="189" y="510"/>
      <point x="157" y="488"/>
      <point x="134" y="445" type="curve" smooth="yes"/>
      <point x="126" y="431"/>
      <point x="124" y="429"/>
      <point x="120" y="429" type="curve" smooth="yes"/>
      <point x="115" y="429"/>
      <point x="115" y="437"/>
      <point x="115" y="446" type="curve" smooth="yes"/>
      <point x="115" y="475"/>
      <point x="117" y="502"/>
      <point x="99" y="501" type="curve" smooth="yes"/>
      <point x="69" y="499" type="line"/>
      <point x="69" y="401"/>
      <point x="68" y="332"/>
      <point x="68" y="214" type="curve" smooth="yes"/>
      <point x="68" y="0" type="line"/>
      <point x="114" y="0" type="line"/>
      <point x="114" y="63" type="line" smooth="yes"/>
      <point x="114" y="67"/>
      <point x="114" y="71"/>
      <point x="120" y="71" type="curve" smooth="yes"/>
      <point x="123" y="71"/>
      <point x="124" y="72"/>
      <point x="135" y="53" type="curve" smooth="yes"/>
      <point x="155" y="17"/>
      <point x="176" y="-10"/>
      <point x="212" y="-10" type="curve" smooth="yes"/>
      <point x="288" y="-10"/>
      <point x="345" y="106"/>
    </contour>
    <contour>
      <point x="286" y="246" type="curve" smooth="yes"/>
      <point x="286" y="72"/>
      <point x="259" y="4"/>
      <point x="214" y="4" type="curve" smooth="yes"/>
      <point x="160" y="4"/>
      <point x="120" y="113"/>
      <point x="120" y="254" type="curve" smooth="yes"/>
      <point x="120" y="275" type="line" smooth="yes"/>
      <point x="120" y="404"/>
      <point x="152" y="474"/>
      <point x="204" y="474" type="curve" smooth="yes"/>
      <point x="257" y="474"/>
      <point x="286" y="399"/>
    </contour>
    <contour>
      <point x="68" y="49" type="line"/>
      <point x="68" y="14"/>
      <point x="69" y="-113"/>
      <point x="63" y="-196" type="curve" name="_corner00"/>
      <point x="121" y="-196" type="line" name="_corner01"/>
      <point x="119" y="-156"/>
      <point x="114" y="-48"/>
      <point x="114" y="0" type="curve"/>
      <point x="114" y="49" type="line"/>
    </contour>
    <component base="_stem.long.top.indentright" xOffset="-16" identifier="2E46611E"/>
  </outline>
</glyph>
<glyph name="idotless" format="2">
  <advance width="212"/>
  <unicode hex="0131"/>
  <anchor x="106" y="0" name="bottom"/>
  <anchor x="191" y="10" name="ogonek"/>
  <anchor x="93" y="500" name="top"/>
  <outline>
    <contour>
      <point x="78" y="0" type="curve" name="_corner01"/>
      <point x="134" y="0" type="line" name="_corner00"/>
      <point x="131" y="132"/>
      <point x="132" y="262"/>
      <point x="132" y="287" type="curve" smooth="yes"/>
      <point x="132" y="472"/>
      <point x="133" y="488"/>
      <point x="133" y="497" type="curve" smooth="yes"/>
      <point x="133" y="503"/>
      <point x="130" y="506"/>
      <point x="125" y="506" type="curve" smooth="yes"/>
      <point x="113" y="506"/>
      <point x="113" y="494"/>
      <point x="85" y="474" type="curve" smooth="yes"/>
      <point x="48" y="448"/>
      <point x="30" y="454"/>
      <point x="30" y="441" type="curve" smooth="yes"/>
      <point x="30" y="436"/>
      <point x="33" y="433"/>
      <point x="38" y="433" type="curve" smooth="yes"/>
      <point x="68" y="433"/>
      <point x="79" y="422"/>
      <point x="79" y="392" type="curve" smooth="yes"/>
      <point x="79" y="369"/>
      <point x="80" y="132"/>
    </contour>
  </outline>
</glyph>
<glyph name="OE" format="2">
  <advance width="400"/>
  <unicode hex="0152"/>
  <anchor x="173" y="0" name="bottom"/>
  <anchor x="173" y="350" name="center"/>
  <anchor x="307" y="10" name="ogonek"/>
  <anchor x="173" y="700" name="top"/>
  <anchor x="25" y="700" name="topleft"/>
  <anchor x="320" y="700" name="topright"/>
  <outline>
    <contour>
      <point x="176" y="-10" type="curve" smooth="yes"/>
      <point x="200" y="-10"/>
      <point x="204" y="0"/>
      <point x="270" y="0" type="curve"/>
      <point x="191" y="33" type="line"/>
      <point x="191" y="10"/>
      <point x="182" y="5"/>
      <point x="169" y="12" type="curve" smooth="yes"/>
      <point x="128" y="33"/>
      <point x="98" y="180"/>
      <point x="94" y="382" type="curve" smooth="yes"/>
      <point x="89" y="577"/>
      <point x="112" y="694"/>
      <point x="156" y="694" type="curve" smooth="yes"/>
      <point x="181" y="694"/>
      <point x="192" y="667"/>
      <point x="192" y="607" type="curve"/>
      <point x="249" y="700" type="line"/>
      <point x="200" y="700"/>
      <point x="191" y="710"/>
      <point x="169" y="710" type="curve" smooth="yes"/>
      <point x="85" y="710"/>
      <point x="26" y="547"/>
      <point x="30" y="340" type="curve" smooth="yes"/>
      <point x="33" y="134"/>
      <point x="96" y="-10"/>
    </contour>
    <contour>
      <point x="377" y="-6" type="curve" smooth="yes"/>
      <point x="382" y="-6"/>
      <point x="386" y="-3"/>
      <point x="385" y="5" type="curve" smooth="yes"/>
      <point x="383" y="20"/>
      <point x="378" y="40"/>
      <point x="378" y="80" type="curve" smooth="yes"/>
      <point x="378" y="144"/>
      <point x="383" y="175"/>
      <point x="385" y="191" type="curve" smooth="yes"/>
      <point x="386" y="200"/>
      <point x="382" y="203"/>
      <point x="377" y="203" type="curve" smooth="yes"/>
      <point x="372" y="203"/>
      <point x="369" y="198"/>
      <point x="369" y="191" type="curve" smooth="yes"/>
      <point x="369" y="40"/>
      <point x="353" y="13"/>
      <point x="264" y="13" type="curve" smooth="yes"/>
      <point x="255" y="13"/>
      <point x="251" y="14"/>
      <point x="250" y="37" type="curve"/>
      <point x="241" y="37" type="line"/>
      <point x="241" y="0" type="line"/>
      <point x="359" y="0"/>
      <point x="367" y="-6"/>
    </contour>
    <contour>
      <point x="190" y="0" type="line" name="_corner00"/>
      <point x="252" y="0" type="line"/>
      <point x="252" y="700" type="line" name="_corner01"/>
      <point x="190" y="700" type="line"/>
    </contour>
    <contour>
      <point x="330" y="238" type="curve" smooth="yes"/>
      <point x="334" y="238"/>
      <point x="338" y="241"/>
      <point x="338" y="249" type="curve" smooth="yes"/>
      <point x="338" y="272"/>
      <point x="327" y="298"/>
      <point x="327" y="357" type="curve" smooth="yes"/>
      <point x="327" y="420"/>
      <point x="338" y="440"/>
      <point x="338" y="461" type="curve" smooth="yes"/>
      <point x="338" y="469"/>
      <point x="334" y="472"/>
      <point x="330" y="472" type="curve" smooth="yes"/>
      <point x="325" y="472"/>
      <point x="322" y="467"/>
      <point x="322" y="460" type="curve" smooth="yes"/>
      <point x="322" y="385"/>
      <point x="314" y="370"/>
      <point x="269" y="365" type="curve" smooth="yes"/>
      <point x="253" y="363"/>
      <point x="247" y="364"/>
      <point x="247" y="388" type="curve"/>
      <point x="238" y="388" type="line"/>
      <point x="238" y="330" type="line"/>
      <point x="247" y="330" type="line"/>
      <point x="247" y="350"/>
      <point x="253" y="351"/>
      <point x="269" y="349" type="curve" smooth="yes"/>
      <point x="314" y="344"/>
      <point x="322" y="329"/>
      <point x="322" y="250" type="curve" smooth="yes"/>
      <point x="322" y="243"/>
      <point x="325" y="238"/>
    </contour>
    <contour>
      <point x="371" y="500" type="curve" smooth="yes"/>
      <point x="376" y="500"/>
      <point x="380" y="503"/>
      <point x="379" y="512" type="curve" smooth="yes"/>
      <point x="377" y="525"/>
      <point x="372" y="556"/>
      <point x="372" y="620" type="curve" smooth="yes"/>
      <point x="372" y="660"/>
      <point x="377" y="680"/>
      <point x="379" y="695" type="curve" smooth="yes"/>
      <point x="380" y="703"/>
      <point x="376" y="706"/>
      <point x="371" y="706" type="curve" smooth="yes"/>
      <point x="361" y="706"/>
      <point x="353" y="700"/>
      <point x="241" y="700" type="curve"/>
      <point x="241" y="663" type="line"/>
      <point x="250" y="663" type="line"/>
      <point x="251" y="683"/>
      <point x="253" y="687"/>
      <point x="264" y="687" type="curve" smooth="yes"/>
      <point x="348" y="687"/>
      <point x="363" y="661"/>
      <point x="363" y="512" type="curve" smooth="yes"/>
      <point x="363" y="505"/>
      <point x="366" y="500"/>
    </contour>
  </outline>
</glyph>
<glyph name="Germandbls" format="2">
  <advance width="431"/>
  <unicode hex="1E9E"/>
  <anchor x="221" y="0" name="bottom"/>
  <anchor x="221" y="700" name="top"/>
  <outline>
    <component base="_stem.short" xOffset="-2" identifier="C9AACD8B"/>
    <contour>
      <point x="77" y="80" type="line"/>
      <point x="73" y="0" type="line" name="_corner00"/>
      <point x="121" y="0" type="line" smooth="yes"/>
      <point x="129" y="0"/>
      <point x="132" y="4"/>
      <point x="132" y="12" type="curve" smooth="yes"/>
      <point x="129" y="80" type="line"/>
    </contour>
    <contour>
      <point x="77" y="377" type="line"/>
      <point x="129" y="377" type="line"/>
      <point x="131" y="579" type="line" smooth="yes"/>
      <point x="132" y="639"/>
      <point x="127" y="682"/>
      <point x="187" y="682" type="curve" smooth="yes"/>
      <point x="242" y="681"/>
      <point x="278" y="643"/>
      <point x="279" y="590" type="curve" smooth="yes"/>
      <point x="281" y="500"/>
      <point x="161" y="471"/>
      <point x="161" y="382" type="curve" smooth="yes"/>
      <point x="161" y="328"/>
      <point x="189" y="286"/>
      <point x="268" y="218" type="curve" smooth="yes"/>
      <point x="333" y="163"/>
      <point x="360" y="128"/>
      <point x="360" y="79" type="curve" smooth="yes"/>
      <point x="360" y="32"/>
      <point x="331" y="3"/>
      <point x="285" y="3" type="curve" smooth="yes"/>
      <point x="215" y="3"/>
      <point x="179" y="61"/>
      <point x="176" y="178" type="curve" smooth="yes"/>
      <point x="176" y="196"/>
      <point x="175" y="201"/>
      <point x="169" y="201" type="curve" smooth="yes"/>
      <point x="163" y="201"/>
      <point x="160" y="197"/>
      <point x="160" y="190" type="curve" smooth="yes"/>
      <point x="160" y="177"/>
      <point x="169" y="150"/>
      <point x="169" y="84" type="curve" smooth="yes"/>
      <point x="169" y="25"/>
      <point x="162" y="14"/>
      <point x="162" y="2" type="curve" smooth="yes"/>
      <point x="162" y="-6"/>
      <point x="165" y="-10"/>
      <point x="170" y="-10" type="curve" smooth="yes"/>
      <point x="180" y="-10"/>
      <point x="179" y="7"/>
      <point x="194" y="7" type="curve" smooth="yes"/>
      <point x="211" y="7"/>
      <point x="231" y="-10"/>
      <point x="280" y="-10" type="curve" smooth="yes"/>
      <point x="351" y="-10"/>
      <point x="401" y="36"/>
      <point x="401" y="113" type="curve" smooth="yes"/>
      <point x="401" y="175"/>
      <point x="372" y="219"/>
      <point x="288" y="288" type="curve" smooth="yes"/>
      <point x="226" y="338"/>
      <point x="199" y="368"/>
      <point x="199" y="415" type="curve" smooth="yes"/>
      <point x="199" y="494"/>
      <point x="329" y="515"/>
      <point x="329" y="588" type="curve" smooth="yes"/>
      <point x="329" y="651"/>
      <point x="231" y="700"/>
      <point x="153" y="700" type="curve" smooth="yes"/>
      <point x="75" y="700"/>
      <point x="84" y="641"/>
      <point x="82" y="563" type="curve" smooth="yes"/>
    </contour>
  </outline>
</glyph>
<glyph name="trademark" format="2">
  <advance width="338"/>
  <unicode hex="2122"/>
  <anchor x="81.06" y="418" name="bottom"/>
  <anchor x="81.06" y="559.435" name="center"/>
  <anchor x="81.06" y="700.87" name="top"/>
  <outline>
    <contour>
      <point x="94" y="418" type="line" name="_corner01"/>
      <point x="94" y="700" type="line" name="_corner03"/>
      <point x="69" y="700" type="line"/>
      <point x="68" y="418" type="line" name="_corner02"/>
    </contour>
    <contour>
      <point x="139" y="703" type="curve" smooth="yes"/>
      <point x="135" y="703"/>
      <point x="131" y="700"/>
      <point x="90" y="700" type="curve"/>
      <point x="90" y="683" type="line"/>
      <point x="93" y="683" type="line"/>
      <point x="94" y="692"/>
      <point x="95" y="693"/>
      <point x="100" y="693" type="curve" smooth="yes"/>
      <point x="129" y="693"/>
      <point x="131" y="687"/>
      <point x="131" y="625" type="curve" smooth="yes"/>
      <point x="131" y="621"/>
      <point x="132" y="617"/>
      <point x="137" y="617" type="curve" smooth="yes"/>
      <point x="140" y="617"/>
      <point x="143" y="620"/>
      <point x="142" y="625" type="curve" smooth="yes"/>
      <point x="141" y="630"/>
      <point x="139" y="643"/>
      <point x="139" y="669" type="curve" smooth="yes"/>
      <point x="139" y="685"/>
      <point x="141" y="694"/>
      <point x="142" y="699" type="curve" smooth="yes"/>
      <point x="142" y="702"/>
      <point x="141" y="703"/>
    </contour>
    <contour>
      <point x="23" y="703" type="curve" smooth="yes"/>
      <point x="21" y="703"/>
      <point x="20" y="702"/>
      <point x="20" y="699" type="curve" smooth="yes"/>
      <point x="21" y="693"/>
      <point x="23" y="685"/>
      <point x="23" y="669" type="curve" smooth="yes"/>
      <point x="23" y="643"/>
      <point x="20" y="630"/>
      <point x="20" y="625" type="curve" smooth="yes"/>
      <point x="20" y="620"/>
      <point x="22" y="618"/>
      <point x="26" y="618" type="curve" smooth="yes"/>
      <point x="29" y="618"/>
      <point x="31" y="620"/>
      <point x="31" y="625" type="curve" smooth="yes"/>
      <point x="31" y="687"/>
      <point x="33" y="693"/>
      <point x="62" y="693" type="curve" smooth="yes"/>
      <point x="66" y="693"/>
      <point x="69" y="692"/>
      <point x="69" y="683" type="curve"/>
      <point x="73" y="683" type="line"/>
      <point x="73" y="700" type="line"/>
      <point x="31" y="700"/>
      <point x="27" y="703"/>
    </contour>
    <contour>
      <point x="195" y="701" type="curve" name="_corner05"/>
      <point x="185" y="701" type="line"/>
      <point x="169" y="701"/>
      <point x="155" y="703"/>
      <point x="150" y="703" type="curve" smooth="yes"/>
      <point x="146" y="703"/>
      <point x="144" y="702"/>
      <point x="144" y="698" type="curve" smooth="yes"/>
      <point x="144" y="695"/>
      <point x="146" y="693"/>
      <point x="150" y="693" type="curve" smooth="yes"/>
      <point x="158" y="693"/>
      <point x="171" y="695"/>
      <point x="174" y="677" type="curve"/>
      <point x="175" y="672" type="line" smooth="yes"/>
      <point x="175" y="671"/>
      <point x="175" y="669"/>
      <point x="175" y="667" type="curve" smooth="yes"/>
      <point x="174" y="418" type="line" name="_corner08"/>
      <point x="191" y="418" type="line" name="_corner09"/>
      <point x="187" y="501"/>
      <point x="184" y="576"/>
      <point x="183" y="629" type="curve" smooth="yes"/>
      <point x="183" y="630"/>
      <point x="184" y="631"/>
      <point x="185" y="631" type="curve" smooth="yes"/>
      <point x="185" y="631"/>
      <point x="186" y="630"/>
      <point x="186" y="629" type="curve" smooth="yes"/>
      <point x="199" y="564"/>
      <point x="215" y="481"/>
      <point x="228" y="414" type="curve" smooth="yes"/>
      <point x="228" y="413"/>
      <point x="229" y="413"/>
      <point x="230" y="413" type="curve" smooth="yes"/>
      <point x="232" y="413" type="line" smooth="yes"/>
      <point x="233" y="413"/>
      <point x="233" y="413"/>
      <point x="234" y="414" type="curve"/>
      <point x="252" y="530"/>
      <point x="257" y="559"/>
      <point x="269" y="629" type="curve" smooth="yes"/>
      <point x="269" y="631"/>
      <point x="270" y="631"/>
      <point x="271" y="631" type="curve" smooth="yes"/>
      <point x="271" y="631"/>
      <point x="272" y="630"/>
      <point x="272" y="629" type="curve" smooth="yes"/>
      <point x="273" y="567"/>
      <point x="272" y="523"/>
      <point x="270" y="418" type="curve" name="_corner10"/>
      <point x="297" y="418" type="line" name="_corner11"/>
      <point x="292" y="701" type="line" name="_corner12"/>
      <point x="266" y="701" type="line" name="_corner06"/>
      <point x="257" y="610"/>
      <point x="246" y="535"/>
      <point x="238" y="484" type="curve" smooth="yes"/>
      <point x="238" y="482"/>
      <point x="238" y="481"/>
      <point x="237" y="481" type="curve" smooth="yes"/>
      <point x="236" y="481"/>
      <point x="235" y="482"/>
      <point x="235" y="484" type="curve" smooth="yes"/>
      <point x="226" y="536"/>
      <point x="212" y="608"/>
    </contour>
  </outline>
</glyph>
<glyph name="Mercury" format="2">
  <advance width="472"/>
  <unicode hex="263F"/>
  <guideline x="243" y="159" angle="0"/>
  <guideline x="243" y="500" angle="0"/>
  <outline>
    <contour>
      <point x="232" y="159" type="curve" smooth="yes"/>
      <point x="355" y="159"/>
      <point x="450" y="235"/>
      <point x="447" y="342" type="curve" smooth="yes"/>
      <point x="445" y="436"/>
      <point x="347" y="510"/>
      <point x="237" y="510" type="curve" smooth="yes"/>
      <point x="116" y="510"/>
      <point x="23" y="435"/>
      <point x="25" y="328" type="curve" smooth="yes"/>
      <point x="26" y="233"/>
      <point x="123" y="159"/>
    </contour>
    <contour>
      <point x="85" y="339" type="curve" smooth="yes"/>
      <point x="83" y="439"/>
      <point x="144" y="498"/>
      <point x="228" y="498" type="curve" smooth="yes"/>
      <point x="313" y="498"/>
      <point x="385" y="430"/>
      <point x="387" y="328" type="curve" smooth="yes"/>
      <point x="389" y="230"/>
      <point x="327" y="171"/>
      <point x="243" y="171" type="curve" smooth="yes"/>
      <point x="158" y="171"/>
      <point x="87" y="239"/>
    </contour>
    <contour>
      <point x="217" y="80" type="line"/>
      <point x="215" y="0" type="line" name="_corner02"/>
      <point x="271" y="0" type="line" name="_corner03"/>
      <point x="269" y="80" type="line"/>
    </contour>
    <contour>
      <point x="139" y="95" type="curve" smooth="yes"/>
      <point x="139" y="88"/>
      <point x="145" y="84"/>
      <point x="154" y="84" type="curve" smooth="yes"/>
      <point x="197" y="84"/>
      <point x="217" y="92"/>
      <point x="217" y="65" type="curve" smooth="yes"/>
      <point x="217" y="49" type="line"/>
      <point x="269" y="49" type="line"/>
      <point x="269" y="65" type="line" smooth="yes"/>
      <point x="269" y="92"/>
      <point x="289" y="84"/>
      <point x="332" y="84" type="curve" smooth="yes"/>
      <point x="341" y="84"/>
      <point x="347" y="88"/>
      <point x="347" y="95" type="curve" smooth="yes"/>
      <point x="347" y="101"/>
      <point x="343" y="105"/>
      <point x="334" y="105" type="curve" smooth="yes"/>
      <point x="285" y="105"/>
      <point x="268" y="96"/>
      <point x="268" y="116" type="curve" smooth="yes"/>
      <point x="268" y="147" type="line" smooth="yes"/>
      <point x="268" y="153"/>
      <point x="268" y="159"/>
      <point x="268" y="165" type="curve"/>
      <point x="210" y="160" type="line"/>
      <point x="217" y="159"/>
      <point x="218" y="153"/>
      <point x="218" y="147" type="curve" smooth="yes"/>
      <point x="218" y="116" type="line" smooth="yes"/>
      <point x="218" y="96"/>
      <point x="201" y="105"/>
      <point x="152" y="105" type="curve" smooth="yes"/>
      <point x="143" y="105"/>
      <point x="139" y="101"/>
    </contour>
    <contour>
      <point x="80" y="700" type="curve" name="_corner00"/>
      <point x="42" y="700" type="line" smooth="yes"/>
      <point x="25" y="700"/>
      <point x="19" y="693"/>
      <point x="20" y="672" type="curve" smooth="yes"/>
      <point x="21" y="577"/>
      <point x="123" y="503"/>
      <point x="232" y="503" type="curve" smooth="yes"/>
      <point x="355" y="503"/>
      <point x="455" y="579"/>
      <point x="452" y="686" type="curve" smooth="yes"/>
      <point x="452" y="697"/>
      <point x="445" y="700"/>
      <point x="425" y="700" type="curve"/>
      <point x="390" y="700" type="line" name="_corner01"/>
      <point x="402" y="596"/>
      <point x="344" y="515"/>
      <point x="243" y="515" type="curve" smooth="yes"/>
      <point x="143" y="515"/>
      <point x="80" y="597"/>
    </contour>
  </outline>
</glyph>
<glyph name="Taurus" format="2">
  <advance width="692"/>
  <unicode hex="2649"/>
  <outline>
    <contour>
      <point x="354" y="-10" type="curve" smooth="yes"/>
      <point x="535" y="-10"/>
      <point x="662" y="102"/>
      <point x="662" y="261" type="curve" smooth="yes"/>
      <point x="662" y="407"/>
      <point x="538" y="510"/>
      <point x="361" y="510" type="curve" smooth="yes"/>
      <point x="171" y="510"/>
      <point x="37" y="399"/>
      <point x="37" y="241" type="curve" smooth="yes"/>
      <point x="37" y="94"/>
      <point x="168" y="-10"/>
    </contour>
    <contour>
      <point x="101" y="257" type="curve" smooth="yes"/>
      <point x="101" y="402"/>
      <point x="196" y="493"/>
      <point x="348" y="493" type="curve" smooth="yes"/>
      <point x="494" y="493"/>
      <point x="597" y="389"/>
      <point x="597" y="241" type="curve" smooth="yes"/>
      <point x="597" y="97"/>
      <point x="509" y="7"/>
      <point x="370" y="7" type="curve" smooth="yes"/>
      <point x="212" y="7"/>
      <point x="101" y="110"/>
    </contour>
    <component base="_horn" xOffset="-30" yOffset="-1"/>
    <component base="_horn" xScale="-1" xOffset="720" yOffset="-1"/>
  </outline>
</glyph>
<glyph name="Gemini" format="2">
  <advance width="612"/>
  <unicode hex="264A"/>
  <outline>
    <contour>
      <point x="218" y="154" type="line"/>
      <point x="218" y="546" type="line" name="_corner02"/>
      <point x="154" y="566" type="line"/>
      <point x="154" y="139" type="line" name="_corner01"/>
    </contour>
    <contour>
      <point x="394" y="546" type="line"/>
      <point x="394" y="154" type="line" name="_corner03"/>
      <point x="458" y="139" type="line"/>
      <point x="458" y="566" type="line" name="_corner00"/>
    </contour>
    <contour>
      <point x="60" y="700" type="curve" name="_corner05"/>
      <point x="22" y="700" type="line" smooth="yes"/>
      <point x="5" y="700"/>
      <point x="0" y="693"/>
      <point x="0" y="672" type="curve" smooth="yes"/>
      <point x="0" y="597"/>
      <point x="124" y="538"/>
      <point x="302" y="538" type="curve" smooth="yes"/>
      <point x="484" y="538"/>
      <point x="612" y="603"/>
      <point x="612" y="686" type="curve" smooth="yes"/>
      <point x="612" y="697"/>
      <point x="605" y="700"/>
      <point x="585" y="700" type="curve"/>
      <point x="550" y="700" type="line" name="_corner04"/>
      <point x="550" y="604"/>
      <point x="472" y="550"/>
      <point x="313" y="550" type="curve" smooth="yes"/>
      <point x="144" y="550"/>
      <point x="60" y="604"/>
    </contour>
    <contour>
      <point x="552" y="0" type="curve" name="_corner07"/>
      <point x="590" y="0" type="line" smooth="yes"/>
      <point x="607" y="0"/>
      <point x="612" y="7"/>
      <point x="612" y="28" type="curve" smooth="yes"/>
      <point x="612" y="103"/>
      <point x="488" y="162"/>
      <point x="310" y="162" type="curve" smooth="yes"/>
      <point x="128" y="162"/>
      <point x="0" y="97"/>
      <point x="0" y="14" type="curve" smooth="yes"/>
      <point x="0" y="3"/>
      <point x="7" y="0"/>
      <point x="27" y="0" type="curve"/>
      <point x="62" y="0" type="line" name="_corner06"/>
      <point x="62" y="96"/>
      <point x="140" y="150"/>
      <point x="299" y="150" type="curve" smooth="yes"/>
      <point x="468" y="150"/>
      <point x="552" y="96"/>
    </contour>
  </outline>
</glyph>
<glyph name="Pisces" format="2">
  <advance width="636"/>
  <unicode hex="2653"/>
  <outline>
    <contour>
      <point x="23" y="42" type="curve" name="_corner03"/>
      <point x="22" y="13" type="line" smooth="yes"/>
      <point x="21" y="-4"/>
      <point x="29" y="-9"/>
      <point x="50" y="-9" type="curve" smooth="yes"/>
      <point x="198" y="-9"/>
      <point x="287" y="69"/>
      <point x="314" y="226" type="curve" smooth="yes"/>
      <point x="316" y="238"/>
      <point x="320" y="238"/>
      <point x="322" y="226" type="curve" smooth="yes"/>
      <point x="352" y="68"/>
      <point x="443" y="-9"/>
      <point x="600" y="-9" type="curve" smooth="yes"/>
      <point x="611" y="-9"/>
      <point x="615" y="-2"/>
      <point x="614" y="18" type="curve" smooth="yes"/>
      <point x="613" y="43" type="line" name="_corner00"/>
      <point x="423" y="43"/>
      <point x="328" y="137"/>
      <point x="324" y="327" type="curve" smooth="yes"/>
      <point x="324" y="345"/>
      <point x="343" y="344"/>
      <point x="365" y="344" type="curve" smooth="yes"/>
      <point x="491" y="344"/>
      <point x="507" y="341"/>
      <point x="523" y="341" type="curve" smooth="yes"/>
      <point x="534" y="341"/>
      <point x="539" y="344"/>
      <point x="539" y="350" type="curve" smooth="yes"/>
      <point x="539" y="356"/>
      <point x="534" y="361"/>
      <point x="523" y="361" type="curve" smooth="yes"/>
      <point x="507" y="361"/>
      <point x="491" y="357"/>
      <point x="365" y="357" type="curve" smooth="yes"/>
      <point x="343" y="357"/>
      <point x="324" y="356"/>
      <point x="325" y="377" type="curve" smooth="yes"/>
      <point x="336" y="565"/>
      <point x="430" y="658"/>
      <point x="613" y="658" type="curve" name="_corner01"/>
      <point x="614" y="687" type="line" smooth="yes"/>
      <point x="615" y="704"/>
      <point x="607" y="709"/>
      <point x="586" y="709" type="curve" smooth="yes"/>
      <point x="438" y="709"/>
      <point x="349" y="631"/>
      <point x="322" y="474" type="curve" smooth="yes"/>
      <point x="320" y="462"/>
      <point x="316" y="462"/>
      <point x="314" y="474" type="curve" smooth="yes"/>
      <point x="284" y="632"/>
      <point x="193" y="709"/>
      <point x="36" y="709" type="curve" smooth="yes"/>
      <point x="25" y="709"/>
      <point x="21" y="702"/>
      <point x="22" y="682" type="curve" smooth="yes"/>
      <point x="23" y="657" type="line" name="_corner02"/>
      <point x="213" y="657"/>
      <point x="312" y="563"/>
      <point x="312" y="373" type="curve" smooth="yes"/>
      <point x="312" y="355"/>
      <point x="293" y="356"/>
      <point x="271" y="356" type="curve" smooth="yes"/>
      <point x="145" y="356"/>
      <point x="129" y="359"/>
      <point x="113" y="359" type="curve" smooth="yes"/>
      <point x="102" y="359"/>
      <point x="97" y="356"/>
      <point x="97" y="350" type="curve" smooth="yes"/>
      <point x="97" y="344"/>
      <point x="102" y="339"/>
      <point x="113" y="339" type="curve" smooth="yes"/>
      <point x="129" y="339"/>
      <point x="145" y="343"/>
      <point x="271" y="343" type="curve" smooth="yes"/>
      <point x="293" y="343"/>
      <point x="312" y="344"/>
      <point x="311" y="323" type="curve" smooth="yes"/>
      <point x="300" y="135"/>
      <point x="206" y="42"/>
    </contour>
  </outline>
</glyph>
<glyph name="f_i" format="2">
  <advance width="420"/>
  <unicode hex="FB01"/>
  <anchor x="105" y="0" name="bottom_1"/>
  <anchor x="315" y="0" name="bottom_2"/>
  <anchor x="210" y="0" name="caret_1"/>
  <anchor x="105" y="758" name="top_1"/>
  <anchor x="315" y="758" name="top_2"/>
  <outline>
    <component base="_stem.short" xOffset="3" identifier="F1EF9375"/>
    <contour>
      <point x="82" y="80" type="line"/>
      <point x="78" y="0" type="line" name="_corner00"/>
      <point x="138" y="0" type="line" name="_corner01"/>
      <point x="134" y="80" type="line"/>
    </contour>
    <contour>
      <point x="82" y="377" type="line"/>
      <point x="134" y="377" type="line"/>
      <point x="134" y="454" type="line" smooth="yes"/>
      <point x="134" y="481"/>
      <point x="154" y="473"/>
      <point x="207" y="473" type="curve" smooth="yes"/>
      <point x="215" y="473"/>
      <point x="221" y="477"/>
      <point x="221" y="484" type="curve" smooth="yes"/>
      <point x="221" y="490"/>
      <point x="217" y="494"/>
      <point x="207" y="494" type="curve" smooth="yes"/>
      <point x="150" y="494"/>
      <point x="131" y="485"/>
      <point x="131" y="512" type="curve" smooth="yes"/>
      <point x="131" y="543"/>
      <point x="131" y="568"/>
      <point x="131" y="588" type="curve" smooth="yes"/>
      <point x="131" y="645"/>
      <point x="144" y="677"/>
      <point x="186" y="677" type="curve" smooth="yes"/>
      <point x="258" y="677"/>
      <point x="250" y="580"/>
      <point x="300" y="580" type="curve" smooth="yes"/>
      <point x="324" y="580"/>
      <point x="337" y="594"/>
      <point x="337" y="619" type="curve" smooth="yes"/>
      <point x="337" y="668"/>
      <point x="286" y="708"/>
      <point x="227" y="708" type="curve" smooth="yes"/>
      <point x="145" y="708"/>
      <point x="84" y="635"/>
      <point x="84" y="543" type="curve" smooth="yes"/>
      <point x="84" y="539" type="line" smooth="yes"/>
      <point x="84" y="515"/>
      <point x="77" y="506"/>
      <point x="63" y="499" type="curve" smooth="yes"/>
      <point x="44" y="490"/>
      <point x="32" y="492"/>
      <point x="32" y="482" type="curve" smooth="yes"/>
      <point x="32" y="477"/>
      <point x="36" y="474"/>
      <point x="42" y="474" type="curve" smooth="yes"/>
      <point x="57" y="474"/>
      <point x="82" y="483"/>
      <point x="82" y="441" type="curve" smooth="yes"/>
    </contour>
    <component base="idotless" xOffset="208"/>
  </outline>
</glyph>
<glyph name="f_f_i" format="2">
  <advance width="635"/>
  <unicode hex="FB03"/>
  <anchor x="317.5" y="0" name="caret_1"/>
  <anchor x="423.333" y="0" name="caret_2"/>
  <outline>
    <contour>
      <point x="501" y="0" type="curve" name="_corner05"/>
      <point x="557" y="0" type="line" name="_corner04"/>
      <point x="554" y="132"/>
      <point x="555" y="262"/>
      <point x="555" y="287" type="curve" smooth="yes"/>
      <point x="555" y="472"/>
      <point x="556" y="488"/>
      <point x="556" y="497" type="curve" smooth="yes"/>
      <point x="556" y="503"/>
      <point x="553" y="506"/>
      <point x="548" y="506" type="curve" smooth="yes"/>
      <point x="529" y="506"/>
      <point x="501" y="458"/>
      <point x="411" y="458" type="curve" smooth="yes"/>
      <point x="357" y="458"/>
      <point x="346" y="461"/>
      <point x="346" y="478" type="curve" smooth="yes"/>
      <point x="346" y="589" type="line" smooth="yes"/>
      <point x="346" y="657"/>
      <point x="349" y="695"/>
      <point x="400" y="695" type="curve" smooth="yes"/>
      <point x="445" y="695"/>
      <point x="482" y="666"/>
      <point x="482" y="595" type="curve" smooth="yes"/>
      <point x="482" y="566"/>
      <point x="494" y="550"/>
      <point x="517" y="550" type="curve" smooth="yes"/>
      <point x="540" y="550"/>
      <point x="554" y="566"/>
      <point x="551" y="591" type="curve" smooth="yes"/>
      <point x="542" y="658"/>
      <point x="473" y="710"/>
      <point x="374" y="710" type="curve" smooth="yes"/>
      <point x="295" y="710"/>
      <point x="296" y="668"/>
      <point x="296" y="580" type="curve" smooth="yes"/>
      <point x="296" y="503" type="line" smooth="yes"/>
      <point x="296" y="464"/>
      <point x="284" y="457"/>
      <point x="217" y="457" type="curve" smooth="yes"/>
      <point x="145" y="457"/>
      <point x="132" y="463"/>
      <point x="132" y="487" type="curve" smooth="yes"/>
      <point x="132" y="589" type="line" smooth="yes"/>
      <point x="132" y="657"/>
      <point x="135" y="680"/>
      <point x="166" y="680" type="curve" smooth="yes"/>
      <point x="187" y="680"/>
      <point x="200" y="662"/>
      <point x="200" y="633" type="curve" smooth="yes"/>
      <point x="200" y="605"/>
      <point x="209" y="588"/>
      <point x="225" y="588" type="curve" smooth="yes"/>
      <point x="238" y="588"/>
      <point x="246" y="598"/>
      <point x="246" y="611" type="curve" smooth="yes"/>
      <point x="246" y="649"/>
      <point x="182" y="710"/>
      <point x="130" y="710" type="curve" smooth="yes"/>
      <point x="81" y="710"/>
      <point x="82" y="668"/>
      <point x="82" y="580" type="curve" smooth="yes"/>
      <point x="82" y="506" type="line" smooth="yes"/>
      <point x="82" y="482"/>
      <point x="77" y="473"/>
      <point x="63" y="466" type="curve" smooth="yes"/>
      <point x="44" y="457"/>
      <point x="32" y="459"/>
      <point x="32" y="449" type="curve" smooth="yes"/>
      <point x="32" y="444"/>
      <point x="36" y="441"/>
      <point x="42" y="441" type="curve" smooth="yes"/>
      <point x="57" y="441"/>
      <point x="82" y="450"/>
      <point x="82" y="408" type="curve" smooth="yes"/>
      <point x="82" y="377" type="line"/>
      <point x="134" y="377" type="line"/>
      <point x="134" y="409" type="line" smooth="yes"/>
      <point x="134" y="436"/>
      <point x="146" y="441"/>
      <point x="217" y="441" type="curve" smooth="yes"/>
      <point x="281" y="441"/>
      <point x="296" y="430"/>
      <point x="296" y="404" type="curve" smooth="yes"/>
      <point x="296" y="377" type="line"/>
      <point x="348" y="377" type="line"/>
      <point x="348" y="420" type="line" smooth="yes"/>
      <point x="348" y="436"/>
      <point x="359" y="439"/>
      <point x="421" y="439" type="curve" smooth="yes"/>
      <point x="490" y="439"/>
      <point x="502" y="432"/>
      <point x="502" y="392" type="curve" smooth="yes"/>
      <point x="502" y="369"/>
      <point x="503" y="132"/>
    </contour>
    <contour>
      <point x="292" y="0" type="line" name="_corner02"/>
      <point x="352" y="0" type="line" name="_corner03"/>
      <point x="348" y="80" type="line"/>
      <point x="296" y="80" type="line"/>
    </contour>
    <contour>
      <point x="78" y="0" type="line" name="_corner00"/>
      <point x="138" y="0" type="line" name="_corner01"/>
      <point x="134" y="80" type="line"/>
      <point x="82" y="80" type="line"/>
    </contour>
    <component base="_stem.short" xOffset="217" identifier="9ADE51E3"/>
    <component base="_stem.short" xOffset="3" identifier="6A3B9D9E"/>
  </outline>
</glyph>
<glyph name="f_f_l" format="2">
  <advance width="622"/>
  <unicode hex="FB04"/>
  <outline>
    <component base="_stem.short" xOffset="3" identifier="315C0F33"/>
    <contour>
      <point x="82" y="80" type="line"/>
      <point x="78" y="0" type="line" name="_corner02"/>
      <point x="138" y="0" type="line" name="_corner03"/>
      <point x="134" y="80" type="line"/>
    </contour>
    <contour>
      <point x="82" y="377" type="line"/>
      <point x="134" y="377" type="line"/>
      <point x="134" y="444" type="line" smooth="yes"/>
      <point x="134" y="470"/>
      <point x="146" y="476"/>
      <point x="217" y="476" type="curve" smooth="yes"/>
      <point x="281" y="476"/>
      <point x="296" y="465"/>
      <point x="296" y="439" type="curve" smooth="yes"/>
      <point x="296" y="377" type="line"/>
      <point x="348" y="377" type="line"/>
      <point x="348" y="454" type="line" smooth="yes"/>
      <point x="348" y="481"/>
      <point x="368" y="473"/>
      <point x="421" y="473" type="curve" smooth="yes"/>
      <point x="429" y="473"/>
      <point x="435" y="477"/>
      <point x="435" y="484" type="curve" smooth="yes"/>
      <point x="435" y="490"/>
      <point x="431" y="494"/>
      <point x="421" y="494" type="curve" smooth="yes"/>
      <point x="364" y="494"/>
      <point x="346" y="485"/>
      <point x="346" y="512" type="curve" smooth="yes"/>
      <point x="346" y="589" type="line" smooth="yes"/>
      <point x="346" y="657"/>
      <point x="349" y="680"/>
      <point x="380" y="680" type="curve" smooth="yes"/>
      <point x="401" y="680"/>
      <point x="414" y="674"/>
      <point x="414" y="645" type="curve" smooth="yes"/>
      <point x="414" y="614"/>
      <point x="415" y="600"/>
      <point x="431" y="600" type="curve" smooth="yes"/>
      <point x="440" y="600"/>
      <point x="448" y="609"/>
      <point x="453" y="623" type="curve" smooth="yes"/>
      <point x="458" y="637"/>
      <point x="465" y="645"/>
      <point x="477" y="645" type="curve" smooth="yes"/>
      <point x="488" y="645"/>
      <point x="493" y="641"/>
      <point x="494" y="623" type="curve" smooth="yes"/>
      <point x="495" y="610"/>
      <point x="495" y="550"/>
      <point x="495" y="455" type="curve" smooth="yes"/>
      <point x="495" y="389" type="line"/>
      <point x="547" y="389" type="line"/>
      <point x="547" y="455" type="line" smooth="yes"/>
      <point x="547" y="645"/>
      <point x="553" y="690"/>
      <point x="553" y="702" type="curve" smooth="yes"/>
      <point x="553" y="707"/>
      <point x="551" y="710"/>
      <point x="547" y="710" type="curve" smooth="yes"/>
      <point x="535" y="710"/>
      <point x="495" y="653"/>
      <point x="460" y="653" type="curve" smooth="yes"/>
      <point x="425" y="653"/>
      <point x="407" y="710"/>
      <point x="344" y="710" type="curve" smooth="yes"/>
      <point x="295" y="710"/>
      <point x="296" y="668"/>
      <point x="296" y="580" type="curve" smooth="yes"/>
      <point x="296" y="537" type="line" smooth="yes"/>
      <point x="296" y="499"/>
      <point x="284" y="492"/>
      <point x="217" y="492" type="curve" smooth="yes"/>
      <point x="145" y="492"/>
      <point x="132" y="498"/>
      <point x="132" y="522" type="curve" smooth="yes"/>
      <point x="132" y="589" type="line" smooth="yes"/>
      <point x="132" y="657"/>
      <point x="135" y="680"/>
      <point x="166" y="680" type="curve" smooth="yes"/>
      <point x="187" y="680"/>
      <point x="200" y="662"/>
      <point x="200" y="633" type="curve" smooth="yes"/>
      <point x="200" y="605"/>
      <point x="209" y="588"/>
      <point x="225" y="588" type="curve" smooth="yes"/>
      <point x="238" y="588"/>
      <point x="246" y="598"/>
      <point x="246" y="611" type="curve" smooth="yes"/>
      <point x="246" y="649"/>
      <point x="182" y="710"/>
      <point x="130" y="710" type="curve" smooth="yes"/>
      <point x="81" y="710"/>
      <point x="82" y="668"/>
      <point x="82" y="580" type="curve" smooth="yes"/>
      <point x="82" y="539" type="line" smooth="yes"/>
      <point x="82" y="515"/>
      <point x="77" y="506"/>
      <point x="63" y="499" type="curve" smooth="yes"/>
      <point x="44" y="490"/>
      <point x="32" y="492"/>
      <point x="32" y="482" type="curve" smooth="yes"/>
      <point x="32" y="477"/>
      <point x="36" y="474"/>
      <point x="42" y="474" type="curve" smooth="yes"/>
      <point x="57" y="474"/>
      <point x="82" y="483"/>
      <point x="82" y="441" type="curve" smooth="yes"/>
    </contour>
    <contour>
      <point x="296" y="80" type="line"/>
      <point x="292" y="0" type="line" name="_corner00"/>
      <point x="352" y="0" type="line" name="_corner01"/>
      <point x="348" y="80" type="line"/>
    </contour>
    <component base="_stem.short" xOffset="217" identifier="8BE61BEE"/>
    <component base="_stem.short" xOffset="416"/>
    <component base="_stem.foot" xOffset="426"/>
  </outline>
</glyph>
<glyph name="_ariesright" format="2">
  <advance width="672"/>
  <outline>
    <contour>
      <point x="190" y="-8" type="line"/>
      <point x="190" y="70" type="line"/>
      <point x="187" y="70"/>
      <point x="187" y="71"/>
      <point x="185" y="78" type="curve" smooth="yes"/>
      <point x="115" y="402" type="line" smooth="yes"/>
      <point x="66" y="633"/>
      <point x="21" y="710"/>
      <point x="-63" y="710" type="curve" smooth="yes"/>
      <point x="-141" y="710"/>
      <point x="-179" y="636"/>
      <point x="-174" y="517" type="curve" smooth="yes"/>
      <point x="-173" y="494"/>
      <point x="-172" y="492"/>
      <point x="-168" y="492" type="curve" smooth="yes"/>
      <point x="-157" y="492"/>
      <point x="-159" y="501"/>
      <point x="-160" y="514" type="curve" smooth="yes"/>
      <point x="-166" y="604"/>
      <point x="-134" y="661"/>
      <point x="-76" y="661" type="curve" smooth="yes"/>
      <point x="-11" y="661"/>
      <point x="24" y="600"/>
      <point x="65" y="415" type="curve" smooth="yes"/>
      <point x="89" y="307"/>
      <point x="136" y="150"/>
      <point x="147" y="-8" type="curve" name="_corner00"/>
    </contour>
  </outline>
</glyph>
<glyph name="_halfcircle" format="2">
  <advance width="432"/>
  <outline>
    <contour>
      <point x="-10" y="700" type="curve" name="_corner01"/>
      <point x="-48" y="700" type="line" smooth="yes"/>
      <point x="-65" y="700"/>
      <point x="-70" y="693"/>
      <point x="-70" y="672" type="curve" smooth="yes"/>
      <point x="-70" y="570"/>
      <point x="46" y="498"/>
      <point x="212" y="498" type="curve" smooth="yes"/>
      <point x="398" y="498"/>
      <point x="502" y="565"/>
      <point x="502" y="686" type="curve" smooth="yes"/>
      <point x="502" y="697"/>
      <point x="495" y="700"/>
      <point x="475" y="700" type="curve"/>
      <point x="440" y="700" type="line" name="_corner00"/>
      <point x="440" y="568"/>
      <point x="374" y="510"/>
      <point x="223" y="510" type="curve" smooth="yes"/>
      <point x="67" y="510"/>
      <point x="-10" y="573"/>
    </contour>
  </outline>
</glyph>
<glyph name="_n.side" format="2">
  <advance width="600"/>
  <outline>
    <contour>
      <point x="266" y="0" type="line" name="_corner01"/>
      <point x="319" y="0" type="line" name="_corner00"/>
      <point x="319" y="122"/>
      <point x="319" y="245"/>
      <point x="319" y="380" type="curve" smooth="yes"/>
      <point x="319" y="463"/>
      <point x="287" y="510"/>
      <point x="226" y="510" type="curve" smooth="yes"/>
      <point x="188" y="510"/>
      <point x="158" y="488"/>
      <point x="131" y="438" type="curve" smooth="yes"/>
      <point x="127" y="431"/>
      <point x="125" y="427"/>
      <point x="121" y="427" type="curve"/>
      <point x="94" y="427" type="line"/>
      <point x="94" y="287" type="line"/>
      <point x="121" y="287" type="line"/>
      <point x="121" y="402"/>
      <point x="152" y="474"/>
      <point x="208" y="474" type="curve" smooth="yes"/>
      <point x="249" y="474"/>
      <point x="266" y="441"/>
      <point x="266" y="365" type="curve" smooth="yes"/>
    </contour>
  </outline>
</glyph>
<glyph name="_piscesside" format="2">
  <advance width="612"/>
  <outline>
    <contour>
      <point x="-75" y="-9" type="curve" smooth="yes"/>
      <point x="108" y="-9"/>
      <point x="199" y="110"/>
      <point x="199" y="349" type="curve" smooth="yes"/>
      <point x="199" y="590"/>
      <point x="104" y="709"/>
      <point x="-89" y="709" type="curve" smooth="yes"/>
      <point x="-100" y="709"/>
      <point x="-103" y="702"/>
      <point x="-103" y="682" type="curve"/>
      <point x="-102" y="657" type="line" name="_corner00"/>
      <point x="92" y="657"/>
      <point x="187" y="559"/>
      <point x="187" y="360" type="curve" smooth="yes"/>
      <point x="187" y="147"/>
      <point x="92" y="42"/>
      <point x="-102" y="42" type="curve" name="_corner01"/>
      <point x="-103" y="13" type="line" smooth="yes"/>
      <point x="-104" y="-4"/>
      <point x="-96" y="-9"/>
    </contour>
    <contour>
      <point x="186" y="320" type="curve"/>
      <point x="195" y="320" type="line"/>
      <point x="195" y="376" type="line"/>
      <point x="187" y="376" type="line"/>
      <point x="187" y="355"/>
      <point x="169" y="356"/>
      <point x="146" y="356" type="curve" smooth="yes"/>
      <point x="20" y="356"/>
      <point x="4" y="359"/>
      <point x="-12" y="359" type="curve" smooth="yes"/>
      <point x="-23" y="359"/>
      <point x="-28" y="356"/>
      <point x="-28" y="350" type="curve" smooth="yes"/>
      <point x="-28" y="344"/>
      <point x="-23" y="339"/>
      <point x="-12" y="339" type="curve" smooth="yes"/>
      <point x="4" y="339"/>
      <point x="20" y="343"/>
      <point x="146" y="343" type="curve" smooth="yes"/>
      <point x="169" y="343"/>
      <point x="187" y="344"/>
    </contour>
  </outline>
</glyph>
<glyph name="_stem.foot" format="2">
  <advance width="208"/>
  <guideline x="30" y="0" angle="270"/>
  <outline>
    <contour>
      <point x="69" y="80" type="line"/>
      <point x="67" y="0" type="line" name="_corner00"/>
      <point x="123" y="0" type="line" name="_corner01"/>
      <point x="121" y="80" type="line"/>
    </contour>
  </outline>
</glyph>
<glyph name="f_f_k" format="2">
  <advance width="782"/>
  <anchor x="130" y="0" name="bottom_1"/>
  <anchor x="391" y="0" name="bottom_2"/>
  <anchor x="652" y="0" name="bottom_3"/>
  <anchor x="260.667" y="0" name="caret_1"/>
  <anchor x="521.333" y="0" name="caret_2"/>
  <anchor x="130" y="758" name="top_1"/>
  <anchor x="391" y="758" name="top_2"/>
  <anchor x="652" y="758" name="top_3"/>
  <outline>
    <contour>
      <point x="689" y="0" type="curve" name="_corner00"/>
      <point x="759" y="0" type="line" name="_corner01"/>
      <point x="710" y="102"/>
      <point x="664" y="204"/>
      <point x="619" y="310" type="curve" smooth="yes"/>
      <point x="616" y="316"/>
      <point x="617" y="324"/>
      <point x="619" y="328" type="curve" smooth="yes"/>
      <point x="648" y="383"/>
      <point x="684" y="441"/>
      <point x="729" y="500" type="curve" name="_corner02"/>
      <point x="670" y="500" type="line" name="_corner03"/>
      <point x="638" y="417"/>
      <point x="598" y="334"/>
      <point x="556" y="260" type="curve" smooth="yes"/>
      <point x="550" y="249"/>
      <point x="541" y="246"/>
      <point x="541" y="268" type="curve" smooth="yes"/>
      <point x="541" y="447" type="line" smooth="yes"/>
      <point x="541" y="645"/>
      <point x="549" y="690"/>
      <point x="549" y="702" type="curve" smooth="yes"/>
      <point x="549" y="708"/>
      <point x="546" y="711"/>
      <point x="541" y="711" type="curve" smooth="yes"/>
      <point x="533" y="711"/>
      <point x="495" y="653"/>
      <point x="460" y="653" type="curve" smooth="yes"/>
      <point x="425" y="653"/>
      <point x="407" y="710"/>
      <point x="344" y="710" type="curve" smooth="yes"/>
      <point x="295" y="710"/>
      <point x="296" y="668"/>
      <point x="296" y="580" type="curve" smooth="yes"/>
      <point x="296" y="537" type="line" smooth="yes"/>
      <point x="296" y="499"/>
      <point x="284" y="492"/>
      <point x="217" y="492" type="curve" smooth="yes"/>
      <point x="145" y="492"/>
      <point x="132" y="498"/>
      <point x="132" y="522" type="curve" smooth="yes"/>
      <point x="132" y="589" type="line" smooth="yes"/>
      <point x="132" y="657"/>
      <point x="135" y="680"/>
      <point x="166" y="680" type="curve" smooth="yes"/>
      <point x="187" y="680"/>
      <point x="200" y="662"/>
      <point x="200" y="633" type="curve" smooth="yes"/>
      <point x="200" y="605"/>
      <point x="209" y="588"/>
      <point x="225" y="588" type="curve" smooth="yes"/>
      <point x="238" y="588"/>
      <point x="246" y="598"/>
      <point x="246" y="611" type="curve" smooth="yes"/>
      <point x="246" y="649"/>
      <point x="182" y="710"/>
      <point x="130" y="710" type="curve" smooth="yes"/>
      <point x="81" y="710"/>
      <point x="82" y="668"/>
      <point x="82" y="580" type="curve" smooth="yes"/>
      <point x="82" y="539" type="line" smooth="yes"/>
      <point x="82" y="515"/>
      <point x="77" y="506"/>
      <point x="63" y="499" type="curve" smooth="yes"/>
      <point x="44" y="490"/>
      <point x="32" y="492"/>
      <point x="32" y="482" type="curve" smooth="yes"/>
      <point x="32" y="477"/>
      <point x="36" y="474"/>
      <point x="42" y="474" type="curve" smooth="yes"/>
      <point x="57" y="474"/>
      <point x="82" y="483"/>
      <point x="82" y="441" type="curve" smooth="yes"/>
      <point x="82" y="377" type="line"/>
      <point x="134" y="377" type="line"/>
      <point x="134" y="444" type="line" smooth="yes"/>
      <point x="134" y="470"/>
      <point x="146" y="476"/>
      <point x="217" y="476" type="curve" smooth="yes"/>
      <point x="281" y="476"/>
      <point x="296" y="465"/>
      <point x="296" y="439" type="curve" smooth="yes"/>
      <point x="296" y="377" type="line"/>
      <point x="348" y="377" type="line"/>
      <point x="348" y="454" type="line" smooth="yes"/>
      <point x="348" y="481"/>
      <point x="368" y="473"/>
      <point x="421" y="473" type="curve" smooth="yes"/>
      <point x="429" y="473"/>
      <point x="435" y="477"/>
      <point x="435" y="484" type="curve" smooth="yes"/>
      <point x="435" y="490"/>
      <point x="431" y="494"/>
      <point x="421" y="494" type="curve" smooth="yes"/>
      <point x="364" y="494"/>
      <point x="346" y="485"/>
      <point x="346" y="512" type="curve" smooth="yes"/>
      <point x="346" y="589" type="line" smooth="yes"/>
      <point x="346" y="657"/>
      <point x="349" y="680"/>
      <point x="380" y="680" type="curve" smooth="yes"/>
      <point x="401" y="680"/>
      <point x="414" y="674"/>
      <point x="414" y="645" type="curve" smooth="yes"/>
      <point x="414" y="614"/>
      <point x="415" y="600"/>
      <point x="431" y="600" type="curve" smooth="yes"/>
      <point x="440" y="600"/>
      <point x="448" y="609"/>
      <point x="453" y="623" type="curve" smooth="yes"/>
      <point x="458" y="637"/>
      <point x="465" y="645"/>
      <point x="477" y="645" type="curve" smooth="yes"/>
      <point x="491" y="645"/>
      <point x="495" y="634"/>
      <point x="495" y="597" type="curve" smooth="yes"/>
      <point x="495" y="80" type="line"/>
      <point x="547" y="80" type="line"/>
      <point x="547" y="180" type="line" smooth="yes"/>
      <point x="547" y="191"/>
      <point x="550" y="200"/>
      <point x="553" y="207" type="curve" smooth="yes"/>
      <point x="583" y="267" type="line" smooth="yes"/>
      <point x="588" y="278"/>
      <point x="591" y="278"/>
      <point x="594" y="268" type="curve" smooth="yes"/>
      <point x="627" y="177"/>
      <point x="660" y="87"/>
    </contour>
    <contour>
      <point x="78" y="0" type="line" name="_corner06"/>
      <point x="138" y="0" type="line" name="_corner07"/>
      <point x="134" y="80" type="line"/>
      <point x="82" y="80" type="line"/>
    </contour>
    <component base="_stem.short" xOffset="3" identifier="E5B79666"/>
    <contour>
      <point x="292" y="0" type="line" name="_corner04"/>
      <point x="352" y="0" type="line" name="_corner05"/>
      <point x="348" y="80" type="line"/>
      <point x="296" y="80" type="line"/>
    </contour>
    <component base="_stem.short" xOffset="217" identifier="4D5A4B1E"/>
    <component base="_stem.foot" xOffset="426" identifier="6C2698F5"/>
  </outline>
</glyph>
